<svg width="180" height="50" viewBox="0 0 180 50" fill="none" xmlns="http://www.w3.org/2000/svg">
<path d="M7.31212 0H172.688C176.722 0 180 2.69 180 6V44C180 47.31 176.722 50 172.688 50H7.31212C3.27827 50 0 47.31 0 44V6C0 2.69 3.27827 0 7.31212 0Z" fill="black"/>
<path d="M45.2323 23.8594C45.2023 20.2794 48.1623 18.5394 48.2923 18.4594C46.6123 16.0194 44.0123 15.6794 43.1023 15.6494C40.9223 15.4194 38.8023 16.9594 37.6923 16.9594C36.5623 16.9594 34.8423 15.6794 33.0023 15.7094C30.6323 15.7494 28.4023 17.1194 27.1923 19.2594C24.6823 23.6094 26.5523 30.0094 28.9623 33.5293C30.1723 35.2493 31.5723 37.1793 33.4223 37.1093C35.2223 37.0393 35.9023 35.9593 38.0723 35.9593C40.2323 35.9593 40.8623 37.1093 42.7423 37.0693C44.6823 37.0393 45.8923 35.3393 47.0623 33.5993C48.4523 31.6293 49.0123 29.6794 49.0323 29.5794C48.9823 29.5594 45.2723 28.1394 45.2323 23.8594Z" fill="white"/>
<path d="M41.6824 13.3398C42.6524 12.1298 43.3124 10.4798 43.1324 8.7998C41.7324 8.8598 39.9724 9.7698 38.9624 10.9598C38.0724 12.0098 37.2724 13.7198 37.4724 15.3298C39.0524 15.4498 40.6724 14.5298 41.6824 13.3398Z" fill="white"/>
<path d="M75.3526 36.8599H72.8326L71.4526 32.5199H66.6526L65.3426 36.8599H62.8926L67.6426 22.0898H70.5826L75.3526 36.8599ZM71.0426 30.6999L69.7926 26.8498C69.6626 26.4498 69.4126 25.5298 69.0526 24.0698H69.0026C68.8526 24.6998 68.6226 25.6298 68.3026 26.8498L67.0726 30.6999H71.0426Z" fill="white"/>
<path d="M87.5627 31.4102C87.5627 33.2202 87.0727 34.6502 86.0827 35.7002C85.2027 36.6402 84.1027 37.1002 82.8027 37.1002C81.3927 37.1002 80.3827 36.6002 79.7627 35.5902V41.1802H77.3927V29.7102C77.3927 28.5702 77.3627 27.4102 77.3027 26.2102H79.3827L79.5127 27.9002H79.5527C80.3427 26.6302 81.5427 25.9902 83.1427 25.9902C84.4027 25.9902 85.4427 26.4902 86.2827 27.4802C87.1427 28.4802 87.5627 29.7802 87.5627 31.4102ZM85.1527 31.4902C85.1527 30.4502 84.9227 29.6002 84.4527 28.9302C83.9427 28.2302 83.2527 27.8802 82.3927 27.8802C81.8127 27.8802 81.2827 28.0802 80.8027 28.4602C80.3327 28.8502 80.0127 29.3502 79.8727 29.9802C79.8027 30.2702 79.7627 30.5102 79.7627 30.7002V32.4802C79.7627 33.2502 80.0027 33.9102 80.4727 34.4402C80.9427 34.9702 81.5627 35.2402 82.3227 35.2402C83.2127 35.2402 83.9027 34.8902 84.4027 34.2102C84.9027 33.5202 85.1527 32.6202 85.1527 31.4902Z" fill="white"/>
<path d="M99.8029 31.4102C99.8029 33.2202 99.313 34.6502 98.323 35.7002C97.443 36.6402 96.343 37.1002 95.043 37.1002C93.633 37.1002 92.623 36.6002 92.003 35.5902V41.1802H89.633V29.7102C89.633 28.5702 89.603 27.4102 89.543 26.2102H91.623L91.753 27.9002H91.793C92.583 26.6302 93.783 25.9902 95.383 25.9902C96.643 25.9902 97.683 26.4902 98.523 27.4802C99.3829 28.4802 99.8029 29.7802 99.8029 31.4102ZM97.393 31.4902C97.393 30.4502 97.163 29.6002 96.693 28.9302C96.183 28.2302 95.493 27.8802 94.633 27.8802C94.053 27.8802 93.523 28.0802 93.043 28.4602C92.573 28.8502 92.263 29.3502 92.113 29.9802C92.043 30.2702 92.003 30.5102 92.003 30.7002V32.4802C92.003 33.2502 92.243 33.9102 92.713 34.4402C93.183 34.9702 93.803 35.2402 94.563 35.2402C95.453 35.2402 96.153 34.8902 96.643 34.2102C97.153 33.5202 97.393 32.6202 97.393 31.4902Z" fill="white"/>
<path d="M113.503 32.7199C113.503 33.9799 113.063 34.9999 112.193 35.7899C111.233 36.6499 109.893 37.0799 108.173 37.0799C106.583 37.0799 105.313 36.7699 104.353 36.1599L104.903 34.1899C105.943 34.7999 107.083 35.1099 108.323 35.1099C109.213 35.1099 109.913 34.9099 110.403 34.5099C110.903 34.1099 111.153 33.5699 111.153 32.8999C111.153 32.2999 110.943 31.7999 110.543 31.3899C110.133 30.9799 109.453 30.5999 108.503 30.2499C105.893 29.2799 104.603 27.8699 104.603 26.0199C104.603 24.8099 105.063 23.8199 105.973 23.0399C106.883 22.2699 108.093 21.8799 109.603 21.8799C110.943 21.8799 112.063 22.1099 112.953 22.5799L112.353 24.4999C111.513 24.0499 110.573 23.8199 109.513 23.8199C108.683 23.8199 108.023 24.0299 107.553 24.4299C107.163 24.7999 106.963 25.2399 106.963 25.7699C106.963 26.3499 107.193 26.8399 107.643 27.2099C108.033 27.5599 108.753 27.9399 109.793 28.3499C111.063 28.8599 111.993 29.4599 112.593 30.1499C113.203 30.8399 113.503 31.6999 113.503 32.7199Z" fill="white"/>
<path d="M121.342 27.9906H118.732V33.1606C118.732 34.4706 119.192 35.1306 120.112 35.1306C120.532 35.1306 120.882 35.0906 121.162 35.0206L121.232 36.8206C120.762 36.9906 120.152 37.0806 119.392 37.0806C118.452 37.0806 117.732 36.7906 117.202 36.2206C116.672 35.6506 116.412 34.6906 116.412 33.3506V27.9806H114.862V26.2106H116.412V24.2605L118.732 23.5605V26.2106H121.342V27.9906Z" fill="white"/>
<path d="M133.082 31.45C133.082 33.09 132.612 34.43 131.682 35.48C130.702 36.56 129.402 37.1 127.782 37.1C126.222 37.1 124.972 36.58 124.042 35.55C123.112 34.52 122.652 33.21 122.652 31.63C122.652 29.98 123.132 28.63 124.082 27.58C125.042 26.53 126.332 26 127.952 26C129.512 26 130.772 26.52 131.722 27.56C132.632 28.56 133.082 29.86 133.082 31.45ZM130.632 31.5C130.632 30.52 130.422 29.69 130.002 28.99C129.502 28.14 128.792 27.72 127.872 27.72C126.922 27.72 126.192 28.14 125.702 28.99C125.272 29.69 125.072 30.54 125.072 31.55C125.072 32.53 125.282 33.37 125.702 34.06C126.212 34.91 126.932 35.33 127.852 35.33C128.752 35.33 129.462 34.9 129.982 34.04C130.412 33.32 130.632 32.48 130.632 31.5Z" fill="white"/>
<path d="M140.782 28.2902C140.552 28.2502 140.302 28.2302 140.032 28.2302C139.202 28.2302 138.552 28.5402 138.102 29.1702C137.712 29.7202 137.512 30.4302 137.512 31.2702V36.8603H135.142V29.5602C135.142 28.3302 135.122 27.2102 135.072 26.2102H137.132L137.222 28.2502H137.292C137.542 27.5502 137.932 26.9802 138.472 26.5602C139.002 26.1802 139.572 25.9902 140.182 25.9902C140.402 25.9902 140.602 26.0102 140.772 26.0302L140.782 28.2902Z" fill="white"/>
<path d="M151.362 31.03C151.362 31.45 151.332 31.81 151.272 32.1H144.173C144.203 33.15 144.543 33.9599 145.203 34.5099C145.803 34.9999 146.573 35.2499 147.523 35.2499C148.573 35.2499 149.532 35.0799 150.392 34.7499L150.762 36.3899C149.752 36.8299 148.563 37.0499 147.193 37.0499C145.543 37.0499 144.243 36.5599 143.303 35.5899C142.363 34.6199 141.893 33.31 141.893 31.68C141.893 30.08 142.333 28.74 143.213 27.67C144.133 26.53 145.373 25.96 146.933 25.96C148.462 25.96 149.632 26.53 150.412 27.67C151.042 28.59 151.362 29.7 151.362 31.03ZM149.102 30.42C149.122 29.72 148.962 29.11 148.643 28.6C148.233 27.94 147.603 27.61 146.763 27.61C145.993 27.61 145.363 27.93 144.883 28.57C144.493 29.08 144.253 29.7 144.183 30.41L149.102 30.42Z" fill="white"/>
<path d="M69.9025 16.8098H68.6625L67.9825 14.6798H65.6225L64.9725 16.8098H63.7725L66.1025 9.5498H67.5425L69.9025 16.8098ZM67.7725 13.7798L67.1625 11.8798C67.1025 11.6898 66.9825 11.2298 66.7925 10.5098H66.7725C66.6925 10.8198 66.5925 11.2698 66.4225 11.8798L65.8225 13.7798H67.7725Z" fill="white"/>
<path d="M75.7428 11.5703L73.7629 16.8103H72.6329L70.7129 11.5703H71.9629L72.8529 14.3403C73.0029 14.8003 73.1329 15.2403 73.2329 15.6603H73.2629C73.3529 15.2803 73.4829 14.8403 73.6429 14.3403L74.5228 11.5703H75.7428Z" fill="white"/>
<path d="M79.9629 16.8105L79.8729 16.2105H79.8429C79.4829 16.6905 78.9729 16.9305 78.3129 16.9305C77.3729 16.9305 76.7129 16.2705 76.7129 15.3905C76.7129 14.1005 77.8329 13.4305 79.7729 13.4305V13.3305C79.7729 12.6405 79.4029 12.3005 78.6829 12.3005C78.1629 12.3005 77.7129 12.4305 77.3129 12.6905L77.0729 11.9305C77.5529 11.6305 78.1629 11.4805 78.8729 11.4805C80.2429 11.4805 80.9329 12.2005 80.9329 13.6505V15.5805C80.9329 16.1105 80.9529 16.5205 81.0129 16.8305L79.9629 16.8105ZM79.8029 14.2005C78.5129 14.2005 77.8629 14.5105 77.8629 15.2605C77.8629 15.8105 78.1929 16.0805 78.6629 16.0805C79.2529 16.0805 79.8029 15.6305 79.8029 15.0105V14.2005Z" fill="white"/>
<path d="M83.5221 10.7103C83.1321 10.7103 82.832 10.4103 82.832 10.0103C82.832 9.61031 83.1421 9.32031 83.5421 9.32031C83.9421 9.32031 84.2621 9.61031 84.2521 10.0103C84.2521 10.4303 83.9521 10.7103 83.5221 10.7103ZM82.962 11.5703H84.1221V16.8003H82.962V11.5703Z" fill="white"/>
<path d="M86.1924 9.16992H87.3524V16.7999H86.1924V9.16992Z" fill="white"/>
<path d="M92.292 16.8097L92.202 16.2097H92.172C91.812 16.6897 91.302 16.9297 90.642 16.9297C89.702 16.9297 89.042 16.2697 89.042 15.3897C89.042 14.0997 90.162 13.4297 92.102 13.4297V13.3297C92.102 12.6397 91.732 12.2997 91.012 12.2997C90.492 12.2997 90.042 12.4297 89.642 12.6897L89.402 11.9197C89.882 11.6197 90.492 11.4697 91.202 11.4697C92.572 11.4697 93.262 12.1897 93.262 13.6397V15.5697C93.262 16.0997 93.282 16.5097 93.332 16.8197H92.292V16.8097ZM92.132 14.1997C90.842 14.1997 90.192 14.5097 90.192 15.2597C90.192 15.8097 90.522 16.0797 90.992 16.0797C91.582 16.0797 92.132 15.6297 92.132 15.0097V14.1997Z" fill="white"/>
<path d="M97.9829 16.9299C97.2429 16.9299 96.6929 16.6199 96.3329 15.9999H96.3129L96.2429 16.8099H95.2529C95.2829 16.3899 95.2929 15.9199 95.2929 15.3999V9.16992H96.4629V12.3399H96.4829C96.8329 11.7599 97.3829 11.4699 98.1529 11.4699C99.4129 11.4699 100.293 12.5499 100.293 14.1199C100.293 15.7399 99.3129 16.9299 97.9829 16.9299ZM97.7429 12.3799C97.0729 12.3799 96.4629 12.9599 96.4629 13.7699V14.6899C96.4629 15.4099 97.0129 15.9999 97.7229 15.9999C98.5929 15.9999 99.1129 15.2899 99.1129 14.1599C99.1129 13.0999 98.5729 12.3799 97.7429 12.3799Z" fill="white"/>
<path d="M102.013 9.16992H103.173V16.7999H102.013V9.16992Z" fill="white"/>
<path d="M109.503 14.4692H106.013C106.033 15.4592 106.693 16.0192 107.663 16.0192C108.183 16.0192 108.653 15.9292 109.073 15.7692L109.253 16.5792C108.763 16.7992 108.183 16.8992 107.503 16.8992C105.863 16.8992 104.893 15.8692 104.893 14.2592C104.893 12.6592 105.883 11.4492 107.373 11.4492C108.703 11.4492 109.553 12.4392 109.553 13.9392C109.553 14.1492 109.543 14.3292 109.503 14.4692ZM108.443 13.6392C108.443 12.8292 108.033 12.2592 107.293 12.2592C106.623 12.2592 106.103 12.8392 106.023 13.6392H108.443Z" fill="white"/>
<path d="M116.552 16.9297C115.022 16.9297 114.032 15.7897 114.032 14.2397C114.032 12.6197 115.042 11.4697 116.642 11.4697C118.152 11.4697 119.162 12.5597 119.162 14.1497C119.162 15.7797 118.122 16.9297 116.552 16.9297ZM116.602 12.3197C115.762 12.3197 115.222 13.1097 115.222 14.1997C115.222 15.2797 115.772 16.0597 116.592 16.0597C117.412 16.0597 117.962 15.2197 117.962 14.1697C117.952 13.1097 117.422 12.3197 116.602 12.3197Z" fill="white"/>
<path d="M125.413 16.81H124.253V13.8C124.253 12.87 123.893 12.41 123.193 12.41C122.503 12.41 122.033 13 122.033 13.69V16.8H120.873V13.07C120.873 12.61 120.863 12.11 120.833 11.57H121.853L121.903 12.38H121.933C122.243 11.82 122.883 11.46 123.593 11.46C124.693 11.46 125.413 12.3 125.413 13.67V16.81Z" fill="white"/>
<path d="M133.022 12.4495H131.742V14.9895C131.742 15.6395 131.972 15.9595 132.422 15.9595C132.622 15.9595 132.802 15.9395 132.942 15.9095L132.972 16.7895C132.742 16.8795 132.442 16.9195 132.072 16.9195C131.153 16.9195 130.613 16.4095 130.613 15.0895V12.4495H129.853V11.5795H130.613V10.6195L131.752 10.2695V11.5695H133.032V12.4495" fill="white"/>
<path d="M139.182 16.8099H138.022V13.8199C138.022 12.8799 137.662 12.4099 136.962 12.4099C136.363 12.4099 135.803 12.8199 135.803 13.6499V16.7999H134.643V9.16992H135.803V12.3099H135.823C136.193 11.7399 136.713 11.4599 137.392 11.4599C138.502 11.4599 139.182 12.3199 139.182 13.6899V16.8099Z" fill="white"/>
<path d="M145.123 14.4692H141.633C141.653 15.4592 142.313 16.0192 143.283 16.0192C143.803 16.0192 144.273 15.9292 144.693 15.7692L144.873 16.5792C144.383 16.7992 143.803 16.8992 143.123 16.8992C141.483 16.8992 140.513 15.8692 140.513 14.2592C140.513 12.6592 141.503 11.4492 142.993 11.4492C144.323 11.4492 145.173 12.4392 145.173 13.9392C145.173 14.1492 145.163 14.3292 145.123 14.4692ZM144.063 13.6392C144.063 12.8292 143.653 12.2592 142.913 12.2592C142.243 12.2592 141.713 12.8392 141.643 13.6392H144.063Z" fill="white"/>
</svg>
