<svg width="24" height="24" viewBox="0 0 24 24" fill="none" xmlns="http://www.w3.org/2000/svg">
<path d="M13.9366 22.9825C13.8342 22.9869 13.7687 22.9956 13.7031 22.9956C12.3018 22.9956 10.9047 22.9913 9.50342 23C9.30675 23 9.25349 22.9432 9.25349 22.7337C9.25759 19.2584 9.25759 15.7787 9.25759 12.3034C9.25759 12.2118 9.25759 12.1201 9.25759 12.0022C8.4955 12.0022 7.75389 12.0022 7 12.0022C7 10.7623 7 9.54416 7 8.29114C7.07785 8.29114 7.1516 8.29114 7.22125 8.29114C7.83584 8.29114 8.45043 8.28677 9.06501 8.2955C9.22071 8.2955 9.26168 8.24748 9.26168 8.08594C9.25349 7.11233 9.25349 6.13436 9.26168 5.16076C9.26578 4.47967 9.36821 3.81604 9.66321 3.20045C10.0852 2.33162 10.7531 1.76842 11.5971 1.41914C12.2855 1.13099 13.0107 1.02621 13.74 1.01311C14.9282 0.995645 16.1164 1.00438 17.3046 1.00001C17.4152 1.00001 17.5054 0.995645 17.5054 1.16155C17.5013 2.36219 17.5013 3.56282 17.5013 4.76345C17.5013 4.77655 17.4972 4.78965 17.4808 4.84641C17.4111 4.84641 17.3333 4.84641 17.2554 4.84641C16.5179 4.84641 15.7804 4.84204 15.0429 4.84641C14.6168 4.84641 14.2726 5.02978 14.0555 5.42708C13.9899 5.54496 13.9489 5.69777 13.9489 5.83748C13.9366 6.57969 13.9489 7.3219 13.9407 8.06411C13.9407 8.23875 13.9899 8.28677 14.1497 8.28677C15.174 8.27804 16.1983 8.2824 17.2226 8.2824C17.3046 8.2824 17.3824 8.2824 17.5217 8.2824C17.3783 9.53106 17.239 10.7535 17.0956 11.9891C16.0303 11.9891 14.9937 11.9891 13.9366 11.9891C13.9366 15.6609 13.9366 19.3108 13.9366 22.9825Z" fill="#464451" stroke="#464451" stroke-width="1.4"/>
</svg>
