<svg width="180" height="50" viewBox="0 0 180 50" fill="none" xmlns="http://www.w3.org/2000/svg">
<path fill-rule="evenodd" clip-rule="evenodd" d="M0.301029 45.6033C1.14845 48.1433 3.68754 50 6.66668 50H173.333C177 50 180 47.1875 180 43.75V6.25003C180 4.61283 179.319 3.1174 178.211 2.00009C176.991 0.771441 175.254 0 173.333 0H6.66668C6.17566 0 5.69661 0.0504342 5.23511 0.14605C2.68111 0.675204 0.664863 2.58814 0.136067 4.99452C0.0468748 5.40041 0 5.82034 0 6.25003V43.75V43.75C0 44.3946 0.10547 45.0171 0.301029 45.6033Z" fill="black"/>
<path d="M64.7315 12.8043C64.7315 13.8516 64.4218 14.6855 63.8017 15.3077C63.0973 16.0474 62.1793 16.4176 61.0507 16.4176C59.97 16.4176 59.0511 16.0426 58.2954 15.2915C57.5384 14.5411 57.1606 13.6104 57.1606 12.5001C57.1606 11.3892 57.5384 10.4591 58.2954 9.70801C59.0511 8.95758 59.97 8.58203 61.0507 8.58203C61.587 8.58203 62.1004 8.68708 62.5879 8.89657C63.0753 9.10657 63.4663 9.38532 63.7589 9.73441L63.1007 10.3941C62.605 9.80081 61.9225 9.50442 61.0507 9.50442C60.2626 9.50442 59.581 9.78182 59.0058 10.337C58.4305 10.8927 58.1429 11.6133 58.1429 12.5001C58.1429 13.3868 58.4305 14.1074 59.0058 14.6632C59.581 15.2183 60.2625 15.4957 61.0507 15.4957C61.8869 15.4957 62.584 15.2168 63.1421 14.6583C63.5044 14.2944 63.7139 13.7887 63.77 13.1392H61.0507V12.2383H64.6792C64.7143 12.4342 64.7314 12.6222 64.7314 12.8043" fill="white"/>
<path d="M64.7317 12.8043H64.6068C64.6058 13.8277 64.3074 14.6226 63.7136 15.2193L63.7123 15.2203L63.7118 15.2213C63.0298 15.9356 62.1531 16.2911 61.0509 16.2926C59.999 16.2911 59.1185 15.9317 58.3833 15.2032C57.6498 14.4732 57.287 13.582 57.2856 12.5001C57.287 11.4176 57.6498 10.5269 58.3833 9.79744C59.1185 9.06842 59.999 8.70854 61.0509 8.70702C61.5711 8.70702 62.0664 8.80871 62.5388 9.01129C63.0116 9.21544 63.3851 9.48296 63.6635 9.81508L63.759 9.73441L63.6708 9.64604L63.0126 10.3061L63.1008 10.3941L63.197 10.3141C62.6781 9.69143 61.95 9.37757 61.0509 9.37942C60.2335 9.37841 59.5144 9.67098 58.9196 10.2472C58.3191 10.8253 58.0173 11.5865 58.0183 12.5001C58.0173 13.4137 58.3191 14.1748 58.9196 14.753C59.5144 15.3292 60.2335 15.6217 61.0509 15.6207C61.9147 15.6222 62.651 15.3287 63.2305 14.7467C63.6176 14.3579 63.837 13.8194 63.8946 13.1499L63.9062 13.0142H61.1757V12.3633H64.6794V12.2383L64.5565 12.2603C64.5907 12.4498 64.6068 12.6299 64.6068 12.8043H64.8564C64.8564 12.6143 64.8388 12.419 64.8022 12.216L64.7838 12.1133H60.9262V13.2642H63.7702V13.1392L63.6459 13.1285C63.5909 13.7574 63.3909 14.2311 63.0541 14.57C62.5179 15.1051 61.8597 15.3692 61.0509 15.3707C60.292 15.3697 59.648 15.1079 59.0928 14.5733C58.5429 14.0406 58.2694 13.3604 58.2679 12.5001C58.2694 11.6397 58.5429 10.9595 59.0928 10.4268C59.648 9.89216 60.2919 9.63042 61.0509 9.62941C61.8949 9.63143 62.5321 9.91069 63.0054 10.4747L63.0932 10.5792L63.8473 9.82283L63.9282 9.74182L63.8546 9.6543C63.5479 9.28819 63.1394 8.99758 62.6373 8.78185C62.1342 8.56546 61.6033 8.45703 61.0509 8.45703C59.9415 8.45608 58.984 8.84668 58.2074 9.61969C57.428 10.3912 57.0351 11.3609 57.0361 12.5001C57.0351 13.6387 57.428 14.609 58.2079 15.3809C58.984 16.1534 59.9415 16.5436 61.0509 16.5426C62.2064 16.5436 63.1648 16.1592 63.8922 15.3941L63.8019 15.3077L63.8901 15.3961C64.5366 14.7491 64.8573 13.8751 64.8564 12.8043H64.7316H64.7317ZM70.484 9.67143H67.074V12.0494H70.1491V12.9507H67.074V15.3287H70.484V16.25H66.1126V8.75006H70.484V9.67143Z" fill="white"/>
<path d="M70.4839 9.67137V9.54638H66.9491V12.1744H70.0242V12.8253L66.9491 12.8256V15.4536H70.3591V16.125H66.2374V8.87499H70.3591V9.67137H70.4839V9.54638V9.67137H70.6087V8.625H65.9878V16.375H70.6087V15.2036H67.1987V13.0756H70.2738V11.9244H67.1987V9.79637H70.6087V9.67137H70.4839ZM74.5413 16.25H73.5785V9.67132H71.4871V8.74994H76.6327V9.67132H74.5413V16.2499" fill="white"/>
<path d="M74.5413 16.25V16.125H73.7032V9.54638H71.6119V8.87505H76.5078V9.54638H74.4165V16.25H74.5413V16.125V16.25H74.6661V9.79637H76.7574V8.625H71.3623V9.79631H73.4536V16.3749H74.6661V16.2499H74.5413V16.25ZM80.3556 16.25V8.74994H81.3174V16.2499H80.3556" fill="white"/>
<path d="M80.3557 16.25H80.4806V8.87499H81.1927V16.125H80.3557V16.25H80.4806H80.3557V16.375H81.4423V8.625H80.231V16.375H80.3557V16.25V16.25ZM85.5855 16.25H84.6227V9.67132H82.5314V8.74994H87.6769V9.67132H85.5855V16.2499" fill="white"/>
<path d="M85.5851 16.2501V16.1251H84.7471V9.54644H82.6558V8.87511H87.5516V9.54644H85.4603V16.25H85.5851V16.1251V16.25H85.7099V9.79643H87.8012V8.62506H82.4062V9.79637H84.4975V16.375H85.7099V16.25H85.5851V16.2501ZM92.6372 14.653C93.1914 15.2149 93.8696 15.4956 94.6715 15.4956C95.4735 15.4956 96.152 15.2149 96.7053 14.653C97.2601 14.091 97.538 13.3726 97.538 12.5001C97.538 11.6276 97.2601 10.9092 96.7053 10.3472C96.152 9.7852 95.4735 9.50442 94.6715 9.50442C93.8696 9.50442 93.1914 9.7852 92.6372 10.3472C92.0839 10.9092 91.8061 11.6276 91.8061 12.5001C91.8061 13.3726 92.0839 14.091 92.6372 14.653ZM97.4171 15.2808C96.6809 16.039 95.7654 16.4176 94.6715 16.4176C93.5766 16.4176 92.6615 16.039 91.927 15.2808C91.1903 14.5234 90.8237 13.5963 90.8237 12.5001C90.8237 11.4038 91.1903 10.4765 91.927 9.7193C92.6615 8.9609 93.5766 8.58203 94.6715 8.58203C95.7596 8.58203 96.6727 8.96292 97.4122 9.72419C98.1508 10.4854 98.5203 11.4106 98.5203 12.5001C98.5203 13.5963 98.1516 14.5234 97.4171 15.2808Z" fill="white"/>
<path d="M92.6375 14.653L92.5487 14.7408C93.1235 15.3253 93.8406 15.6222 94.6718 15.6207C95.5024 15.6222 96.2205 15.3253 96.7944 14.7408C97.3729 14.1558 97.6639 13.399 97.663 12.5001C97.6639 11.6012 97.3729 10.8443 96.7944 10.2593C96.2205 9.6748 95.5024 9.37796 94.6718 9.37942C93.8406 9.37796 93.1235 9.6748 92.5487 10.2593C91.9715 10.8443 91.68 11.6012 91.6815 12.5001C91.68 13.3989 91.9715 14.1558 92.5487 14.7408L92.6375 14.653L92.7262 14.565C92.1968 14.0255 91.9321 13.3467 91.9311 12.5001C91.9321 11.6535 92.1968 10.9747 92.7262 10.4351C93.2604 9.89558 93.8986 9.63093 94.6718 9.62947C95.4444 9.63093 96.084 9.89558 96.6169 10.4351C97.1473 10.9747 97.412 11.6535 97.4129 12.5001C97.412 13.3467 97.1473 14.0255 96.6169 14.565C96.084 15.1046 95.4445 15.3692 94.6718 15.3706C93.8986 15.3692 93.2604 15.1046 92.7262 14.565L92.6375 14.653ZM97.4173 15.2808L97.3281 15.194C96.6125 15.9283 95.7374 16.2911 94.6718 16.2926C93.6056 16.2911 92.7306 15.9283 92.0163 15.194L92.0129 15.19L92.0163 15.194C91.3022 14.4571 90.9498 13.5684 90.9488 12.5001C90.9498 11.4317 91.3022 10.543 92.0163 9.80621C92.7306 9.07179 93.6056 8.70854 94.6718 8.70708C95.7306 8.70854 96.6036 9.07331 97.3232 9.81154C98.0398 10.5518 98.3943 11.439 98.3958 12.5001C98.3943 13.5684 98.0408 14.4571 97.3281 15.194L97.4173 15.2808L97.5071 15.3677C98.2636 14.5894 98.6462 13.6241 98.6454 12.5001C98.6463 11.3824 98.2621 10.4191 97.5021 9.63733C96.7417 8.85253 95.7891 8.45569 94.6718 8.45703C93.5486 8.45569 92.5931 8.85067 91.8375 9.63245V9.63188C91.0795 10.4107 90.6982 11.376 90.6992 12.5001C90.6982 13.6241 91.0795 14.5894 91.8375 15.3682L91.8409 15.3717L91.8375 15.3677C92.5931 16.1494 93.5486 16.5436 94.6718 16.5426C95.7945 16.5436 96.7499 16.1494 97.5071 15.3677L97.4173 15.2808ZM99.8708 16.2501V8.75H101.042L104.681 14.5845H104.722L104.681 13.1391V8.75H105.644V16.25H104.64L100.832 10.1328H100.791L100.832 11.5786V16.25H99.8709" fill="white"/>
<path d="M99.8707 16.25H99.9956V8.87499H100.972L104.612 14.7095H104.85L104.806 13.1373V8.87505H105.519V16.125H104.709L100.901 10.0078H100.663L100.707 11.5806V16.125H99.8708V16.25H99.9956H99.8708V16.375H100.957V11.5766L100.915 10.1294L100.791 10.1328V10.2578H100.832V10.1328L100.726 10.1992L104.57 16.375H105.768V8.625H104.556V13.1406L104.597 14.5878L104.722 14.5845V14.4595H104.681V14.5845L104.787 14.5181L101.111 8.625H99.746V16.375H99.8708V16.25L99.8707 16.25ZM139.008 37.5H141.337V21.8735H139.008L139.008 37.5ZM159.983 27.5026L157.314 34.2774H157.234L154.463 27.5025H151.955L156.109 36.9716L153.741 42.2388H156.17L162.573 27.5025L159.983 27.5026ZM146.777 35.7252C146.013 35.7252 144.95 35.3433 144.95 34.398C144.95 33.1919 146.275 32.7295 147.418 32.7295C148.443 32.7295 148.923 32.9506 149.546 33.2525C149.365 34.6997 148.121 35.7252 146.777 35.7252ZM147.058 27.1607C145.372 27.1607 143.626 27.9047 142.903 29.5533L144.97 30.4175C145.412 29.5533 146.234 29.2715 147.098 29.2715C148.302 29.2715 149.526 29.9956 149.546 31.2823V31.4429C149.124 31.2017 148.222 30.8399 147.118 30.8399C144.89 30.8399 142.621 32.0659 142.621 34.3579C142.621 36.4488 144.448 37.7959 146.495 37.7959C148.061 37.7959 148.923 37.0923 149.466 36.2681H149.546V37.4741H151.794V31.4829C151.794 28.709 149.727 27.1607 147.058 27.1607ZM132.666 29.4047H129.354V24.0484H132.666C134.407 24.0484 135.395 25.4922 135.395 26.7265C135.395 27.9375 134.407 29.4047 132.666 29.4047ZM132.606 21.8735H127.026V37.5H129.354V31.5796H132.606C135.187 31.5796 137.724 29.708 137.724 26.7265C137.724 23.7451 135.187 21.8735 132.606 21.8735ZM102.179 35.728C100.57 35.728 99.2233 34.3789 99.2233 32.5259C99.2233 30.6534 100.57 29.2837 102.179 29.2837C103.767 29.2837 105.014 30.6534 105.014 32.5259C105.014 34.3789 103.767 35.728 102.179 35.728H102.179ZM104.853 28.3775H104.772C104.25 27.7534 103.244 27.1895 101.978 27.1895C99.3238 27.1895 96.8912 29.5254 96.8912 32.5259C96.8912 35.5064 99.3237 37.8223 101.978 37.8223C103.244 37.8223 104.25 37.2583 104.772 36.6142H104.853V37.3794C104.853 39.4136 103.767 40.501 102.018 40.501C100.591 40.501 99.706 39.4736 99.3437 38.6079L97.3135 39.4536C97.8965 40.8633 99.4447 42.5953 102.018 42.5953C104.752 42.5953 107.065 40.9839 107.065 37.0571V27.5118H104.853V28.3775ZM108.673 37.5H111.005V21.873H108.673V37.5ZM114.443 32.3448C114.383 30.2905 116.032 29.2436 117.218 29.2436C118.143 29.2436 118.927 29.7065 119.188 30.3717L114.443 32.3448ZM121.681 30.5727C121.239 29.3842 119.892 27.1895 117.137 27.1895C114.403 27.1895 112.131 29.3442 112.131 32.5059C112.131 35.4864 114.383 37.8223 117.399 37.8223C119.832 37.8223 121.239 36.332 121.822 35.4662L120.013 34.2577C119.41 35.144 118.585 35.728 117.399 35.728C116.212 35.728 115.368 35.1841 114.825 34.1171L121.922 31.1768L121.681 30.5727ZM65.1374 28.8208V31.0761H70.5256C70.3648 32.3448 69.9425 33.271 69.2991 33.9155C68.5152 34.7011 67.2887 35.5669 65.1374 35.5669C61.8199 35.5669 59.2265 32.8886 59.2265 29.5659C59.2265 26.2432 61.8199 23.5645 65.1374 23.5645C66.9269 23.5645 68.2334 24.2695 69.1986 25.1757L70.7869 23.585C69.44 22.2959 67.6504 21.3092 65.1374 21.3092C60.5934 21.3092 56.7734 25.0147 56.7734 29.5659C56.7734 34.1171 60.5934 37.8223 65.1374 37.8223C67.5905 37.8223 69.44 37.0171 70.8874 35.5064C72.3752 34.0161 72.8379 31.9219 72.8379 30.2305C72.8379 29.7065 72.7978 29.2236 72.7169 28.8208H65.1374ZM78.9637 35.728C77.3549 35.728 75.9676 34.3989 75.9676 32.5059C75.9676 30.5927 77.3549 29.2837 78.9637 29.2837C80.5718 29.2837 81.9592 30.5927 81.9592 32.5059C81.9592 34.3989 80.5718 35.728 78.9637 35.728ZM78.9637 27.1895C76.0279 27.1895 73.6353 29.4247 73.6353 32.5059C73.6353 35.5669 76.0279 37.8223 78.9637 37.8223C81.8988 37.8223 84.2914 35.5669 84.2914 32.5059C84.2914 29.4247 81.8988 27.1895 78.9637 27.1895ZM90.5864 35.728C88.9783 35.728 87.5907 34.3989 87.5907 32.5059C87.5907 30.5927 88.9783 29.2837 90.5864 29.2837C92.1947 29.2837 93.5821 30.5927 93.5821 32.5059C93.5821 34.3989 92.1947 35.728 90.5864 35.728H90.5864ZM90.5864 27.1895C87.6508 27.1895 85.2587 29.4247 85.2587 32.5059C85.2587 35.5669 87.6508 37.8223 90.5864 37.8223C93.5217 37.8223 95.9143 35.5669 95.9143 32.5059C95.9143 29.4247 93.5217 27.1895 90.5864 27.1895H90.5864Z" fill="white"/>
<path d="M18.6688 9.51417C18.25 9.89264 18 10.5239 18 11.3619V11.1724V38.8238V38.6417C18 39.4155 18.2144 40.0132 18.5776 40.398L18.6703 40.4869V40.4873C18.9642 40.753 19.3411 40.894 19.773 40.8936C20.1951 40.8936 20.67 40.7588 21.1711 40.4742L39.2858 30.1651L45.5081 26.6236C46.2984 26.1739 46.742 25.5938 46.8162 25.003V25.0005C46.742 24.4083 46.2984 23.8287 45.5082 23.379L39.2853 19.8379L21.1712 9.52878C20.669 9.24368 20.1938 9.1084 19.7706 9.1084C19.3391 9.1084 18.9627 9.24901 18.6689 9.51417H18.6688Z" fill="#00C1FF"/>
<path d="M18.6703 40.4873L18.5776 40.3984C18.2144 40.0136 18 39.4159 18 38.6421V38.8242V11.1797V11.3623C18 10.5243 18.25 9.89305 18.6688 9.51457L34.1311 25.0014L18.6703 40.4873Z" fill="url(#paint0_linear_120_285)"/>
<path d="M39.2856 30.165L34.1309 25.001L39.2852 19.8379L45.508 23.3789C46.2982 23.8287 46.7418 24.4083 46.816 25.0005V25.0029C46.7418 25.5938 46.2982 26.1739 45.508 26.6235L39.2856 30.165Z" fill="url(#paint1_linear_120_285)"/>
<path d="M19.7731 40.8936C19.3412 40.8939 18.9643 40.7528 18.6704 40.4872V40.4868L34.1312 25.001L39.2859 30.165L21.1712 40.4741C20.67 40.7588 20.1951 40.8936 19.7731 40.8936Z" fill="url(#paint2_linear_120_285)"/>
<path d="M34.1313 25.001L18.6689 9.51411C18.9629 9.24895 19.3393 9.10833 19.7707 9.10833C20.1938 9.10833 20.6691 9.24355 21.1713 9.52871L39.2855 19.8378L34.1312 25.001" fill="url(#paint3_linear_120_285)"/>
<path d="M19.7735 41.0762C19.3416 41.0762 18.9642 40.9351 18.6703 40.6694L18.6698 40.6699C18.6686 40.6687 18.6673 40.6676 18.6659 40.6665L18.5855 40.5879C18.583 40.5854 18.5806 40.5825 18.5776 40.5797L18.6703 40.4868C18.9643 40.7524 19.3411 40.8935 19.7731 40.893C20.1951 40.893 20.67 40.7583 21.1712 40.4737L39.2859 30.1645L39.4019 30.2808L39.2844 30.3477L21.1711 40.6562C20.7144 40.9156 20.2799 41.0508 19.8875 41.0733C19.8496 41.0752 19.8115 41.0761 19.7735 41.0761" fill="url(#paint4_linear_120_285)"/>
<path d="M18.5776 40.5801C18.2144 40.1953 18 39.5981 18 38.8237V38.6416C18 39.4155 18.2144 40.0131 18.5776 40.3979L18.6703 40.4868L18.5776 40.5801Z" fill="url(#paint5_linear_120_285)"/>
<path d="M39.4022 30.2812L39.2861 30.1649L45.5084 26.6234C46.2987 26.1739 46.7423 25.5937 46.8165 25.0028C46.8165 25.2197 46.7681 25.4365 46.6722 25.6475C46.4786 26.0727 46.0906 26.4746 45.5085 26.8061L39.4022 30.2812" fill="url(#paint6_linear_120_285)"/>
<path d="M46.816 25.001C46.7418 24.4087 46.2982 23.8291 45.508 23.3793L39.2852 19.8383L39.4012 19.722H39.4017L45.508 23.1972C46.3792 23.6933 46.8155 24.3471 46.816 25.001Z" fill="url(#paint7_linear_120_285)"/>
<path d="M18 11.3623V11.1713C18 11.1024 18.0019 11.0351 18.0054 10.9697V10.9667C18.0054 10.9658 18.0054 10.9648 18.0057 10.9638V10.9565C18.0433 10.2899 18.25 9.77 18.5776 9.42282L18.6688 9.51455C18.25 9.89308 18 10.5244 18 11.3623Z" fill="url(#paint8_linear_120_285)"/>
<path d="M39.2854 19.8379L21.1712 9.52866C20.669 9.24356 20.1938 9.10834 19.7706 9.10834C19.3391 9.10834 18.9627 9.24895 18.6689 9.51411L18.5776 9.42232C18.6061 9.39211 18.6357 9.36297 18.6664 9.33496C18.6674 9.33395 18.6689 9.33294 18.6698 9.33199C18.9614 9.06885 19.3338 8.92823 19.7614 8.92571H19.7706C20.1938 8.92571 20.669 9.06098 21.1712 9.3462L39.4019 19.7212L39.4014 19.7216L39.2854 19.8379Z" fill="url(#paint9_linear_120_285)"/>
<defs>
<linearGradient id="paint0_linear_120_285" x1="27.8813" y1="10.8875" x2="14.5563" y2="24.234" gradientUnits="userSpaceOnUse">
<stop stop-color="#00A0FF"/>
<stop offset="0.00657" stop-color="#00A1FF"/>
<stop offset="0.2601" stop-color="#00BEFF"/>
<stop offset="0.5122" stop-color="#00D2FF"/>
<stop offset="0.7604" stop-color="#00DFFF"/>
<stop offset="1" stop-color="#00E3FF"/>
</linearGradient>
<linearGradient id="paint1_linear_120_285" x1="47.7788" y1="24.9118" x2="17.5814" y2="24.9118" gradientUnits="userSpaceOnUse">
<stop stop-color="#FFE000"/>
<stop offset="0.4087" stop-color="#FFBD00"/>
<stop offset="0.7754" stop-color="#FFA500"/>
<stop offset="1" stop-color="#FF9C00"/>
</linearGradient>
<linearGradient id="paint2_linear_120_285" x1="36.5492" y1="29.9107" x2="13.969" y2="52.3621" gradientUnits="userSpaceOnUse">
<stop stop-color="#FF3A44"/>
<stop offset="1" stop-color="#C31162"/>
</linearGradient>
<linearGradient id="paint3_linear_120_285" x1="14.6839" y1="7.2181" x2="24.7474" y2="17.2396" gradientUnits="userSpaceOnUse">
<stop stop-color="#32A071"/>
<stop offset="0.0685" stop-color="#2DA771"/>
<stop offset="0.4762" stop-color="#15CF74"/>
<stop offset="0.8009" stop-color="#06E775"/>
<stop offset="1" stop-color="#00F076"/>
</linearGradient>
<linearGradient id="paint4_linear_120_285" x1="36.5379" y1="33.4923" x2="18.4545" y2="51.6049" gradientUnits="userSpaceOnUse">
<stop stop-color="#CC2E36"/>
<stop offset="1" stop-color="#9C0E4E"/>
</linearGradient>
<linearGradient id="paint5_linear_120_285" x1="20.0598" y1="10.887" x2="8.32066" y2="22.6452" gradientUnits="userSpaceOnUse">
<stop stop-color="#008DE0"/>
<stop offset="0.00657" stop-color="#008DE0"/>
<stop offset="0.2601" stop-color="#00A7E0"/>
<stop offset="0.5122" stop-color="#00B8E0"/>
<stop offset="0.7604" stop-color="#00C4E0"/>
<stop offset="1" stop-color="#00C7E0"/>
</linearGradient>
<linearGradient id="paint6_linear_120_285" x1="47.7793" y1="25.0017" x2="17.5818" y2="25.0017" gradientUnits="userSpaceOnUse">
<stop stop-color="#E0C500"/>
<stop offset="0.4087" stop-color="#E0A600"/>
<stop offset="0.7754" stop-color="#E09100"/>
<stop offset="1" stop-color="#E08900"/>
</linearGradient>
<linearGradient id="paint7_linear_120_285" x1="47.7788" y1="25.0022" x2="17.5814" y2="25.0022" gradientUnits="userSpaceOnUse">
<stop stop-color="#FFE840"/>
<stop offset="0.4087" stop-color="#FFCE40"/>
<stop offset="0.7754" stop-color="#FFBC40"/>
<stop offset="1" stop-color="#FFB540"/>
</linearGradient>
<linearGradient id="paint8_linear_120_285" x1="20.0471" y1="10.9088" x2="8.7402" y2="21.7433" gradientUnits="userSpaceOnUse">
<stop stop-color="#40B8FF"/>
<stop offset="0.00657" stop-color="#40B9FF"/>
<stop offset="0.2601" stop-color="#40CEFF"/>
<stop offset="0.5122" stop-color="#40DDFF"/>
<stop offset="0.7604" stop-color="#40E7FF"/>
<stop offset="1" stop-color="#40EAFF"/>
</linearGradient>
<linearGradient id="paint9_linear_120_285" x1="14.6612" y1="10.4933" x2="22.7362" y2="18.5815" gradientUnits="userSpaceOnUse">
<stop stop-color="#65B895"/>
<stop offset="0.0685" stop-color="#62BD95"/>
<stop offset="0.4762" stop-color="#50DB97"/>
<stop offset="0.8009" stop-color="#44ED98"/>
<stop offset="1" stop-color="#40F498"/>
</linearGradient>
</defs>
</svg>
