<svg width="24" height="24" viewBox="0 0 24 24" fill="none" xmlns="http://www.w3.org/2000/svg">
<path fill-rule="evenodd" clip-rule="evenodd" d="M23.6721 12.0471C23.6721 12.5434 23.669 13.0401 23.666 13.537V13.5372V13.5373V13.5373C23.659 14.6736 23.6521 15.8107 23.6814 16.9456C23.7518 19.8331 21.9377 22.0643 19.6268 23.0581C18.6986 23.4565 17.7236 23.6675 16.7158 23.6675C15.875 23.6687 15.0339 23.6726 14.1926 23.6765L14.1919 23.6765H14.1919H14.1919H14.1918C11.8769 23.6873 9.56071 23.6981 7.24707 23.6534C4.87051 23.6065 2.91582 22.6128 1.51426 20.6534C0.77832 19.6221 0.426758 18.4503 0.426758 17.18V7.10183C0.426758 4.35964 1.7627 2.44245 4.13457 1.19558C5.16582 0.656513 6.28613 0.426826 7.45332 0.422138C8.32771 0.422138 9.20248 0.420608 10.0774 0.419078C12.2653 0.415251 14.4543 0.411422 16.6408 0.431513C19.0174 0.450263 21.0002 1.35964 22.4627 3.27214C23.2783 4.34089 23.6721 5.56901 23.6721 6.91901V12.0471ZM12.075 17.0156C9.05157 17.0156 6.61407 14.6063 6.60938 11.6063C6.60469 8.65313 9.06094 6.23438 12.0656 6.23438C15.0797 6.22969 17.5266 8.64376 17.5313 11.6203C17.5313 14.5922 15.0891 17.0109 12.075 17.0156ZM12.075 15.2813C14.1328 15.2813 15.8016 13.6359 15.7969 11.6109C15.7922 9.60469 14.1234 7.96407 12.075 7.96407C10.0172 7.96407 8.33907 9.60001 8.33907 11.6203C8.34376 13.6453 10.0172 15.2859 12.075 15.2813ZM19.3127 5.79375C19.3127 5.13281 18.7971 4.59375 18.1643 4.59375C17.5315 4.59375 17.0159 5.1375 17.0205 5.79844C17.0205 6.44531 17.5315 6.97968 18.1549 6.98437C18.7877 6.98906 19.308 6.45468 19.3127 5.79375Z" fill="#464451"/>
</svg>
