<svg width="64" height="89" viewBox="0 0 64 89" fill="none" xmlns="http://www.w3.org/2000/svg">
<path d="M0 88.5V73.3789L28.7876 49.7056C34.471 44.9958 38.3835 41.2362 40.5251 38.4268C42.6667 35.5347 43.7374 32.3535 43.7374 28.8831C43.7374 25.33 42.6667 22.562 40.5251 20.5789C38.3835 18.5958 35.583 17.6042 32.1236 17.6042C28.9112 17.6042 25.9871 18.5131 23.3514 20.331C20.7979 22.0662 17.8327 25.0408 14.4556 29.2549L1.11197 18.4718C5.64221 12.2746 10.296 7.73005 15.0734 4.83803C19.9331 1.94601 26.0283 0.5 33.3591 0.5C42.3372 0.5 49.5444 2.97887 54.9807 7.93662C60.417 12.8117 63.1351 19.3394 63.1351 27.5197C63.1351 32.2296 62.2291 36.485 60.417 40.2859C58.6049 44.0042 56.2574 47.3094 53.3745 50.2014C50.4916 53.0108 46.1673 56.6465 40.4015 61.1084L26.3166 72.0155H64V88.5H0Z" fill="#29282C"/>
</svg>
