<svg width="76" height="103" viewBox="0 0 76 103" fill="none" xmlns="http://www.w3.org/2000/svg">
<path d="M39.52 103C23.0171 103 9.84381 97.1653 0 85.4958L15.3448 70.8848C22.5829 78.986 30.7378 83.0365 39.8095 83.0365C44.0559 83.0365 47.4819 81.9274 50.0876 79.7093C52.7898 77.3947 54.1409 74.3085 54.1409 70.4508C54.1409 66.3038 52.4038 63.1213 48.9295 60.9031C45.4552 58.6849 40.5816 57.5758 34.3086 57.5758H25.0438L21.5695 43.3989L45.7448 19.0955H5.93524V0H74.4076V16.7809L48.7848 41.2289C66.9282 44.3151 76 53.8628 76 69.8722C76 79.6128 72.6705 87.5693 66.0114 93.7416C59.4489 99.9138 50.6184 103 39.52 103Z" fill="#29282C"/>
</svg>
