<svg width="222" height="61" viewBox="0 0 222 61" fill="none" xmlns="http://www.w3.org/2000/svg">
<path fill-rule="evenodd" clip-rule="evenodd" d="M207.982 16.0333H199.727V5.02154H207.982C208.881 5.01104 209.774 5.16061 210.615 5.46258C211.353 5.71552 212.03 6.10782 212.605 6.61606C213.155 7.10434 213.591 7.69648 213.888 8.35476C214.202 9.04064 214.359 9.78303 214.347 10.5317C214.354 11.2974 214.201 12.0568 213.897 12.7651C213.623 13.4101 213.203 13.9894 212.667 14.4614C212.081 14.9616 211.401 15.3511 210.662 15.6093C209.809 15.9064 208.905 16.0521 207.997 16.039L207.982 16.0333ZM212.362 20.4013C212.79 20.2667 213.208 20.1042 213.612 19.915C214.829 19.3657 215.927 18.6055 216.852 17.6731C217.771 16.739 218.495 15.6473 218.988 14.4558C219.498 13.2189 219.755 11.9004 219.746 10.5713C219.763 9.10666 219.461 7.65469 218.858 6.3079C218.278 5.03027 217.422 3.88385 216.346 2.94358C215.261 2.00831 214.003 1.27564 212.635 0.783623C211.162 0.254101 209.6 -0.0113883 208.026 0.000499493H194.42V34.4099H199.727V21.0544H206.617L214.992 34.4099H221.168L212.362 20.4013ZM156.382 29.403H172.716V34.4268H151.074V0.000499493H172.209V5.02437H156.382V14.0204H171.013V19.0414H156.382V29.403ZM122.718 26.2083C122.448 26.8291 122.044 27.3888 121.533 27.8509C121.005 28.33 120.39 28.7132 119.718 28.9817C119.015 29.2618 118.26 29.3995 117.499 29.386H108.318V18.9425H117.629C118.378 18.9337 119.119 19.0753 119.806 19.3581C120.46 19.6125 121.052 19.9904 121.548 20.4692C122.043 20.9405 122.437 21.4994 122.709 22.1146C122.993 22.7526 123.136 23.4398 123.13 24.1332C123.138 24.8452 122.994 25.5513 122.706 26.2083H122.718ZM108.338 5.07243H117.419C118.058 5.06772 118.691 5.18299 119.282 5.41169C119.846 5.6307 120.36 5.95237 120.796 6.35879C121.229 6.76135 121.574 7.24178 121.812 7.77237C122.06 8.30585 122.184 8.88484 122.173 9.46867C122.175 10.05 122.058 10.6261 121.829 11.165C121.61 11.6903 121.286 12.1703 120.876 12.5785C120.448 12.9943 119.947 13.3341 119.395 13.5822C118.868 13.8239 118.291 13.9458 117.706 13.9384H108.338V5.07243ZM127.975 20.9752C127.616 19.9721 127.096 19.0279 126.435 18.1763C125.862 17.4449 125.188 16.7915 124.43 16.2341C124.938 15.7797 125.395 15.2766 125.795 14.7328C126.969 13.1568 127.591 11.2668 127.572 9.33296C127.579 8.06983 127.314 6.81879 126.793 5.65765C126.279 4.53641 125.531 3.52653 124.596 2.68913C123.635 1.84121 122.512 1.17878 121.287 0.738389C119.961 0.269774 118.555 0.0360083 117.141 0.0485612H103.031V34.4099H117.188C118.748 34.4236 120.298 34.1579 121.755 33.6268C123.09 33.1368 124.314 32.4063 125.36 31.4753C126.384 30.5555 127.191 29.4386 127.729 28.1986C128.272 26.9436 128.549 25.5983 128.544 24.2406C128.549 23.1258 128.357 22.0182 127.978 20.9639L127.975 20.9752ZM69.0561 16.0333H60.8016V5.02154H69.0561C69.9548 5.01104 70.8478 5.16061 71.6891 5.46258C72.4277 5.71417 73.1049 6.10663 73.6794 6.61606C74.2297 7.10418 74.6675 7.69631 74.9649 8.35476C75.2757 9.04169 75.4311 9.78349 75.421 10.5317C75.4285 11.2974 75.2754 12.0568 74.9708 12.7651C74.6981 13.4107 74.2782 13.9901 73.7416 14.4614C73.156 14.9625 72.4754 15.3521 71.7365 15.6093C70.8829 15.9067 69.9795 16.0523 69.0709 16.039L69.0561 16.0333ZM73.4395 20.4013C73.8661 20.2661 74.2827 20.1037 74.6865 19.915C75.9109 19.3681 77.0162 18.6055 77.9444 17.6674C78.865 16.7377 79.589 15.6472 80.0769 14.4558C80.5867 13.2189 80.8441 11.9004 80.8351 10.5713C80.8524 9.10666 80.5498 7.65469 79.9466 6.3079C79.3676 5.02976 78.5117 3.88317 77.435 2.94358C76.3509 2.00771 75.0919 1.27498 73.7239 0.783623C72.2466 0.252385 70.6791 -0.0131328 69.1005 0.000499493H55.497V34.4099H60.8016V21.0544H67.6937L76.0666 34.4099H82.2449L73.4395 20.4013ZM12.9627 20.472L18.2732 8.57245L23.7021 20.472H12.9627ZM20.1065 0.000499493H16.2917L1 34.4099H6.7755L10.7325 25.4958H25.9679L30.0167 34.4099H35.8129L20.1065 0.000499493Z" fill="black"/>
<mask id="path-2-outside-1_120_212" maskUnits="userSpaceOnUse" x="0.262695" y="49.0127" width="221" height="12" fill="black">
<rect fill="white" x="0.262695" y="49.0127" width="221" height="12"/>
<path fill-rule="evenodd" clip-rule="evenodd" d="M15.4684 55.2548H1.5449C1.50934 55.2585 1.47336 55.255 1.43931 55.2445C1.40527 55.2341 1.37391 55.2169 1.34729 55.194C1.32067 55.1712 1.29938 55.1433 1.2848 55.1122C1.27023 55.081 1.2627 55.0472 1.2627 55.0131C1.2627 54.979 1.27023 54.9452 1.2848 54.914C1.29938 54.8828 1.32067 54.8549 1.34729 54.8321C1.37391 54.8093 1.40527 54.7921 1.43931 54.7817C1.47336 54.7712 1.50934 54.7677 1.5449 54.7714H15.4684C15.504 54.7677 15.5399 54.7712 15.574 54.7817C15.608 54.7921 15.6394 54.8093 15.666 54.8321C15.6926 54.8549 15.7139 54.8828 15.7285 54.914C15.7431 54.9452 15.7506 54.979 15.7506 55.0131C15.7506 55.0472 15.7431 55.081 15.7285 55.1122C15.7139 55.1433 15.6926 55.1712 15.666 55.194C15.6394 55.2169 15.608 55.2341 15.574 55.2445C15.5399 55.255 15.504 55.2585 15.4684 55.2548ZM220.623 55.2548H206.7C206.664 55.2585 206.628 55.255 206.594 55.2445C206.56 55.2341 206.529 55.2169 206.502 55.194C206.476 55.1712 206.454 55.1433 206.44 55.1122C206.425 55.081 206.418 55.0472 206.418 55.0131C206.418 54.979 206.425 54.9452 206.44 54.914C206.454 54.8828 206.476 54.8549 206.502 54.8321C206.529 54.8093 206.56 54.7921 206.594 54.7817C206.628 54.7712 206.664 54.7677 206.7 54.7714H220.623C220.659 54.7677 220.695 54.7712 220.729 54.7817C220.763 54.7921 220.794 54.8093 220.821 54.8321C220.848 54.8549 220.869 54.8828 220.884 54.914C220.898 54.9452 220.906 54.979 220.906 55.0131C220.906 55.0472 220.898 55.081 220.884 55.1122C220.869 55.1433 220.848 55.1712 220.821 55.194C220.794 55.2169 220.763 55.2341 220.729 55.2445C220.695 55.255 220.659 55.2585 220.623 55.2548ZM193.884 59.4308V59.8578H188.273V50.1684H193.727V50.5953H188.735V54.5847H193.351V55.0145H188.735V59.4308H193.884ZM169.393 55.2209V50.5982H172.602C172.958 50.5925 173.312 50.652 173.645 50.7735C173.95 50.8793 174.231 51.0416 174.471 51.2513C174.709 51.463 174.897 51.7198 175.025 52.0051C175.152 52.2904 175.216 52.598 175.212 52.9081C175.214 53.2269 175.151 53.5429 175.025 53.8383C174.903 54.1158 174.719 54.3646 174.486 54.5678C174.248 54.7803 173.967 54.9431 173.659 55.0456C173.321 55.1665 172.963 55.2259 172.602 55.2209H169.393ZM174.116 55.3453C174.75 55.0581 175.247 54.5533 175.508 53.9316C175.642 53.6096 175.709 53.2659 175.706 52.9194C175.711 52.5366 175.631 52.157 175.472 51.8055C175.326 51.4749 175.105 51.1787 174.827 50.9375C174.542 50.6902 174.21 50.4981 173.849 50.372C173.455 50.2294 173.038 50.1575 172.617 50.1599H168.928V59.8521H169.393V55.6507H172.513L175.155 59.8578H175.692L173.025 55.6337C173.401 55.6022 173.767 55.5064 174.107 55.351L174.116 55.3453ZM155.562 56.841C155.335 57.3774 154.997 57.8649 154.569 58.2748C154.141 58.6846 153.632 59.0085 153.07 59.2273C151.838 59.6801 150.473 59.6801 149.24 59.2273C148.679 59.002 148.17 58.6745 147.741 58.2631C147.316 57.8542 146.983 57.3676 146.76 56.8325C146.524 56.2611 146.405 55.6515 146.411 55.0371C146.406 54.4201 146.525 53.8078 146.76 53.2333C146.982 52.6919 147.315 52.1986 147.741 51.7828C148.166 51.3679 148.677 51.0407 149.24 50.8215C150.471 50.358 151.84 50.358 153.07 50.8215C153.634 51.0392 154.145 51.3644 154.572 51.7772C154.997 52.1906 155.334 52.6795 155.562 53.2163C155.801 53.796 155.92 54.4142 155.914 55.0371C155.919 55.6544 155.8 56.2669 155.562 56.841ZM155.997 53.0297C155.752 52.4356 155.382 51.8954 154.911 51.4419C154.44 50.9884 153.877 50.6311 153.257 50.3918C152.586 50.1357 151.87 50.007 151.148 50.0129C150.429 50.0067 149.717 50.1354 149.05 50.3918C148.43 50.6333 147.867 50.9924 147.396 51.4472C146.925 51.9021 146.556 52.4433 146.31 53.0382C146.047 53.6677 145.915 54.3397 145.919 55.0173C145.911 55.6953 146.044 56.368 146.31 56.9965C146.557 57.5876 146.927 58.1247 147.398 58.5752C147.87 59.0258 148.431 59.3803 149.05 59.6174C149.715 59.8801 150.429 60.01 151.148 59.9991C151.871 60.0097 152.588 59.8798 153.257 59.6174C153.878 59.3799 154.442 59.025 154.916 58.5742C155.385 58.1272 155.753 57.5931 155.997 57.005C156.257 56.375 156.387 55.7029 156.379 55.0258C156.386 54.3424 156.257 53.6639 155.997 53.0269V53.0297ZM128.058 50.1684H135.136V50.5953H131.833V59.8578H131.367V50.5953H128.058V50.1684ZM115.883 55.3849C116.188 55.5685 116.446 55.8148 116.638 56.1059C116.848 56.4483 116.95 56.8406 116.934 57.2368C116.943 57.6264 116.86 58.013 116.692 58.3678C116.529 58.7013 116.291 58.9966 115.995 59.2329C115.681 59.4769 115.323 59.6638 114.938 59.7843C114.504 59.9188 114.049 59.9847 113.593 59.9794C113.101 59.9839 112.612 59.9123 112.144 59.7673C111.733 59.6432 111.351 59.4424 111.021 59.1764C110.71 58.9187 110.462 58.5981 110.296 58.2377C110.124 57.8544 110.039 57.4414 110.044 57.0248H110.503C110.497 57.3814 110.574 57.7349 110.728 58.0596C110.874 58.3649 111.089 58.636 111.356 58.8541C111.637 59.0881 111.966 59.2642 112.322 59.3715C112.732 59.4918 113.158 59.5519 113.587 59.5496C113.981 59.5545 114.373 59.4972 114.748 59.3799C115.08 59.281 115.388 59.1227 115.658 58.9134C115.906 58.7159 116.108 58.4701 116.25 58.1925C116.393 57.9015 116.465 57.5835 116.46 57.2623C116.476 56.9332 116.39 56.6071 116.215 56.3236C116.047 56.0807 115.823 55.8784 115.56 55.7327C115.265 55.5699 114.948 55.448 114.618 55.3708C114.259 55.2803 113.892 55.1983 113.516 55.1106C113.14 55.023 112.728 54.941 112.331 54.8279C111.964 54.7355 111.613 54.5936 111.288 54.4066C110.986 54.2308 110.728 53.9932 110.533 53.7111C110.322 53.3804 110.219 52.9977 110.236 52.6113C110.231 52.2459 110.309 51.8838 110.467 51.551C110.623 51.2409 110.849 50.9677 111.128 50.7509C111.435 50.5196 111.785 50.346 112.159 50.2391C112.594 50.1136 113.046 50.0516 113.501 50.0553C113.945 50.0501 114.386 50.1151 114.807 50.2476C115.174 50.3721 115.511 50.5642 115.8 50.8131C116.074 51.0482 116.292 51.3376 116.437 51.6613C116.591 52.009 116.667 52.3836 116.662 52.7611H116.2C116.214 52.4524 116.155 52.1447 116.027 51.8608C115.899 51.5769 115.706 51.3241 115.462 51.1212C114.905 50.6919 114.202 50.4726 113.486 50.5049C112.76 50.4699 112.043 50.6757 111.457 51.0873C111.212 51.2666 111.016 51.4988 110.884 51.7647C110.752 52.0307 110.689 52.3228 110.698 52.6169C110.685 52.9337 110.771 53.247 110.947 53.516C111.121 53.748 111.345 53.9409 111.605 54.0815C111.899 54.2418 112.215 54.3618 112.544 54.4377C112.891 54.5254 113.255 54.6074 113.631 54.6781C114.008 54.7487 114.422 54.859 114.816 54.9608C115.185 55.057 115.539 55.2006 115.868 55.3877L115.883 55.3849ZM91.8395 56.6233L94.4228 50.83L97.0653 56.6233H91.8395ZM94.6124 50.1656H94.2095L89.8843 59.8578H90.3909L91.6381 57.0502H97.2401L98.5169 59.8578H99.0264L94.6124 50.1656ZM73.4013 55.3199H78.8818C78.8627 55.9709 78.7181 56.6131 78.4552 57.2142C78.2155 57.7679 77.8602 58.2692 77.411 58.6877C76.9618 59.1062 76.4281 59.4332 75.8423 59.6486C75.2163 59.8802 74.5496 59.9953 73.8782 59.9878C73.1771 59.9928 72.4817 59.867 71.8312 59.6174C71.228 59.3764 70.6826 59.0204 70.2285 58.5713C69.7698 58.123 69.4137 57.5887 69.1827 57.0021C68.9299 56.3705 68.8043 55.6991 68.8124 55.023C68.8073 54.3459 68.938 53.674 69.1976 53.0438C69.4354 52.4554 69.7951 51.9189 70.2551 51.4662C70.7088 51.0181 71.2558 50.6656 71.8608 50.4314C72.4992 50.1753 73.1857 50.0464 73.8782 50.0525C74.4541 50.0515 75.0267 50.1355 75.5757 50.3013C76.0949 50.4587 76.5849 50.6934 77.0273 50.9968C77.4492 51.2914 77.8149 51.6529 78.1086 52.0656C78.4006 52.4811 78.6021 52.9484 78.7011 53.4397H78.2123C78.107 53.0097 77.9148 52.6034 77.6465 52.2437C77.3749 51.8847 77.0437 51.5705 76.6659 51.3135C76.2699 51.046 75.8333 50.8382 75.3713 50.6971C74.8848 50.5486 74.3772 50.4723 73.8664 50.4709C73.2384 50.4654 72.6157 50.5808 72.0356 50.8102C71.4901 51.0314 70.9957 51.3533 70.581 51.7574C70.1666 52.1728 69.8416 52.6618 69.6241 53.1965C69.1601 54.3729 69.1601 55.6702 69.6241 56.8466C69.8405 57.378 70.1636 57.864 70.5751 58.2773C70.9873 58.6821 71.4825 59.0016 72.0297 59.216C73.1695 59.6419 74.4325 59.6589 75.5846 59.264C76.0894 59.0898 76.5556 58.827 76.9592 58.4893C77.3556 58.1486 77.6804 57.7389 77.916 57.282C78.1699 56.7998 78.3257 56.276 78.3752 55.7383H73.4013V55.3199ZM52.2316 59.4308H57.3833V59.8578H51.7547V50.1684H57.2115V50.5953H52.2316V54.5847H56.8442V55.0145H52.2316V59.4308ZM37.5053 50.1684L39.2828 59.8578H38.8117L37.1854 51.0421L33.2986 59.4139H33.1238L29.249 51.0562L27.6107 59.8578H27.1012L28.9024 50.1684H29.3319L33.1831 58.5883L37.0728 50.1684H37.5053Z"/>
</mask>
<path fill-rule="evenodd" clip-rule="evenodd" d="M15.4684 55.2548H1.5449C1.50934 55.2585 1.47336 55.255 1.43931 55.2445C1.40527 55.2341 1.37391 55.2169 1.34729 55.194C1.32067 55.1712 1.29938 55.1433 1.2848 55.1122C1.27023 55.081 1.2627 55.0472 1.2627 55.0131C1.2627 54.979 1.27023 54.9452 1.2848 54.914C1.29938 54.8828 1.32067 54.8549 1.34729 54.8321C1.37391 54.8093 1.40527 54.7921 1.43931 54.7817C1.47336 54.7712 1.50934 54.7677 1.5449 54.7714H15.4684C15.504 54.7677 15.5399 54.7712 15.574 54.7817C15.608 54.7921 15.6394 54.8093 15.666 54.8321C15.6926 54.8549 15.7139 54.8828 15.7285 54.914C15.7431 54.9452 15.7506 54.979 15.7506 55.0131C15.7506 55.0472 15.7431 55.081 15.7285 55.1122C15.7139 55.1433 15.6926 55.1712 15.666 55.194C15.6394 55.2169 15.608 55.2341 15.574 55.2445C15.5399 55.255 15.504 55.2585 15.4684 55.2548ZM220.623 55.2548H206.7C206.664 55.2585 206.628 55.255 206.594 55.2445C206.56 55.2341 206.529 55.2169 206.502 55.194C206.476 55.1712 206.454 55.1433 206.44 55.1122C206.425 55.081 206.418 55.0472 206.418 55.0131C206.418 54.979 206.425 54.9452 206.44 54.914C206.454 54.8828 206.476 54.8549 206.502 54.8321C206.529 54.8093 206.56 54.7921 206.594 54.7817C206.628 54.7712 206.664 54.7677 206.7 54.7714H220.623C220.659 54.7677 220.695 54.7712 220.729 54.7817C220.763 54.7921 220.794 54.8093 220.821 54.8321C220.848 54.8549 220.869 54.8828 220.884 54.914C220.898 54.9452 220.906 54.979 220.906 55.0131C220.906 55.0472 220.898 55.081 220.884 55.1122C220.869 55.1433 220.848 55.1712 220.821 55.194C220.794 55.2169 220.763 55.2341 220.729 55.2445C220.695 55.255 220.659 55.2585 220.623 55.2548ZM193.884 59.4308V59.8578H188.273V50.1684H193.727V50.5953H188.735V54.5847H193.351V55.0145H188.735V59.4308H193.884ZM169.393 55.2209V50.5982H172.602C172.958 50.5925 173.312 50.652 173.645 50.7735C173.95 50.8793 174.231 51.0416 174.471 51.2513C174.709 51.463 174.897 51.7198 175.025 52.0051C175.152 52.2904 175.216 52.598 175.212 52.9081C175.214 53.2269 175.151 53.5429 175.025 53.8383C174.903 54.1158 174.719 54.3646 174.486 54.5678C174.248 54.7803 173.967 54.9431 173.659 55.0456C173.321 55.1665 172.963 55.2259 172.602 55.2209H169.393ZM174.116 55.3453C174.75 55.0581 175.247 54.5533 175.508 53.9316C175.642 53.6096 175.709 53.2659 175.706 52.9194C175.711 52.5366 175.631 52.157 175.472 51.8055C175.326 51.4749 175.105 51.1787 174.827 50.9375C174.542 50.6902 174.21 50.4981 173.849 50.372C173.455 50.2294 173.038 50.1575 172.617 50.1599H168.928V59.8521H169.393V55.6507H172.513L175.155 59.8578H175.692L173.025 55.6337C173.401 55.6022 173.767 55.5064 174.107 55.351L174.116 55.3453ZM155.562 56.841C155.335 57.3774 154.997 57.8649 154.569 58.2748C154.141 58.6846 153.632 59.0085 153.07 59.2273C151.838 59.6801 150.473 59.6801 149.24 59.2273C148.679 59.002 148.17 58.6745 147.741 58.2631C147.316 57.8542 146.983 57.3676 146.76 56.8325C146.524 56.2611 146.405 55.6515 146.411 55.0371C146.406 54.4201 146.525 53.8078 146.76 53.2333C146.982 52.6919 147.315 52.1986 147.741 51.7828C148.166 51.3679 148.677 51.0407 149.24 50.8215C150.471 50.358 151.84 50.358 153.07 50.8215C153.634 51.0392 154.145 51.3644 154.572 51.7772C154.997 52.1906 155.334 52.6795 155.562 53.2163C155.801 53.796 155.92 54.4142 155.914 55.0371C155.919 55.6544 155.8 56.2669 155.562 56.841ZM155.997 53.0297C155.752 52.4356 155.382 51.8954 154.911 51.4419C154.44 50.9884 153.877 50.6311 153.257 50.3918C152.586 50.1357 151.87 50.007 151.148 50.0129C150.429 50.0067 149.717 50.1354 149.05 50.3918C148.43 50.6333 147.867 50.9924 147.396 51.4472C146.925 51.9021 146.556 52.4433 146.31 53.0382C146.047 53.6677 145.915 54.3397 145.919 55.0173C145.911 55.6953 146.044 56.368 146.31 56.9965C146.557 57.5876 146.927 58.1247 147.398 58.5752C147.87 59.0258 148.431 59.3803 149.05 59.6174C149.715 59.8801 150.429 60.01 151.148 59.9991C151.871 60.0097 152.588 59.8798 153.257 59.6174C153.878 59.3799 154.442 59.025 154.916 58.5742C155.385 58.1272 155.753 57.5931 155.997 57.005C156.257 56.375 156.387 55.7029 156.379 55.0258C156.386 54.3424 156.257 53.6639 155.997 53.0269V53.0297ZM128.058 50.1684H135.136V50.5953H131.833V59.8578H131.367V50.5953H128.058V50.1684ZM115.883 55.3849C116.188 55.5685 116.446 55.8148 116.638 56.1059C116.848 56.4483 116.95 56.8406 116.934 57.2368C116.943 57.6264 116.86 58.013 116.692 58.3678C116.529 58.7013 116.291 58.9966 115.995 59.2329C115.681 59.4769 115.323 59.6638 114.938 59.7843C114.504 59.9188 114.049 59.9847 113.593 59.9794C113.101 59.9839 112.612 59.9123 112.144 59.7673C111.733 59.6432 111.351 59.4424 111.021 59.1764C110.71 58.9187 110.462 58.5981 110.296 58.2377C110.124 57.8544 110.039 57.4414 110.044 57.0248H110.503C110.497 57.3814 110.574 57.7349 110.728 58.0596C110.874 58.3649 111.089 58.636 111.356 58.8541C111.637 59.0881 111.966 59.2642 112.322 59.3715C112.732 59.4918 113.158 59.5519 113.587 59.5496C113.981 59.5545 114.373 59.4972 114.748 59.3799C115.08 59.281 115.388 59.1227 115.658 58.9134C115.906 58.7159 116.108 58.4701 116.25 58.1925C116.393 57.9015 116.465 57.5835 116.46 57.2623C116.476 56.9332 116.39 56.6071 116.215 56.3236C116.047 56.0807 115.823 55.8784 115.56 55.7327C115.265 55.5699 114.948 55.448 114.618 55.3708C114.259 55.2803 113.892 55.1983 113.516 55.1106C113.14 55.023 112.728 54.941 112.331 54.8279C111.964 54.7355 111.613 54.5936 111.288 54.4066C110.986 54.2308 110.728 53.9932 110.533 53.7111C110.322 53.3804 110.219 52.9977 110.236 52.6113C110.231 52.2459 110.309 51.8838 110.467 51.551C110.623 51.2409 110.849 50.9677 111.128 50.7509C111.435 50.5196 111.785 50.346 112.159 50.2391C112.594 50.1136 113.046 50.0516 113.501 50.0553C113.945 50.0501 114.386 50.1151 114.807 50.2476C115.174 50.3721 115.511 50.5642 115.8 50.8131C116.074 51.0482 116.292 51.3376 116.437 51.6613C116.591 52.009 116.667 52.3836 116.662 52.7611H116.2C116.214 52.4524 116.155 52.1447 116.027 51.8608C115.899 51.5769 115.706 51.3241 115.462 51.1212C114.905 50.6919 114.202 50.4726 113.486 50.5049C112.76 50.4699 112.043 50.6757 111.457 51.0873C111.212 51.2666 111.016 51.4988 110.884 51.7647C110.752 52.0307 110.689 52.3228 110.698 52.6169C110.685 52.9337 110.771 53.247 110.947 53.516C111.121 53.748 111.345 53.9409 111.605 54.0815C111.899 54.2418 112.215 54.3618 112.544 54.4377C112.891 54.5254 113.255 54.6074 113.631 54.6781C114.008 54.7487 114.422 54.859 114.816 54.9608C115.185 55.057 115.539 55.2006 115.868 55.3877L115.883 55.3849ZM91.8395 56.6233L94.4228 50.83L97.0653 56.6233H91.8395ZM94.6124 50.1656H94.2095L89.8843 59.8578H90.3909L91.6381 57.0502H97.2401L98.5169 59.8578H99.0264L94.6124 50.1656ZM73.4013 55.3199H78.8818C78.8627 55.9709 78.7181 56.6131 78.4552 57.2142C78.2155 57.7679 77.8602 58.2692 77.411 58.6877C76.9618 59.1062 76.4281 59.4332 75.8423 59.6486C75.2163 59.8802 74.5496 59.9953 73.8782 59.9878C73.1771 59.9928 72.4817 59.867 71.8312 59.6174C71.228 59.3764 70.6826 59.0204 70.2285 58.5713C69.7698 58.123 69.4137 57.5887 69.1827 57.0021C68.9299 56.3705 68.8043 55.6991 68.8124 55.023C68.8073 54.3459 68.938 53.674 69.1976 53.0438C69.4354 52.4554 69.7951 51.9189 70.2551 51.4662C70.7088 51.0181 71.2558 50.6656 71.8608 50.4314C72.4992 50.1753 73.1857 50.0464 73.8782 50.0525C74.4541 50.0515 75.0267 50.1355 75.5757 50.3013C76.0949 50.4587 76.5849 50.6934 77.0273 50.9968C77.4492 51.2914 77.8149 51.6529 78.1086 52.0656C78.4006 52.4811 78.6021 52.9484 78.7011 53.4397H78.2123C78.107 53.0097 77.9148 52.6034 77.6465 52.2437C77.3749 51.8847 77.0437 51.5705 76.6659 51.3135C76.2699 51.046 75.8333 50.8382 75.3713 50.6971C74.8848 50.5486 74.3772 50.4723 73.8664 50.4709C73.2384 50.4654 72.6157 50.5808 72.0356 50.8102C71.4901 51.0314 70.9957 51.3533 70.581 51.7574C70.1666 52.1728 69.8416 52.6618 69.6241 53.1965C69.1601 54.3729 69.1601 55.6702 69.6241 56.8466C69.8405 57.378 70.1636 57.864 70.5751 58.2773C70.9873 58.6821 71.4825 59.0016 72.0297 59.216C73.1695 59.6419 74.4325 59.6589 75.5846 59.264C76.0894 59.0898 76.5556 58.827 76.9592 58.4893C77.3556 58.1486 77.6804 57.7389 77.916 57.282C78.1699 56.7998 78.3257 56.276 78.3752 55.7383H73.4013V55.3199ZM52.2316 59.4308H57.3833V59.8578H51.7547V50.1684H57.2115V50.5953H52.2316V54.5847H56.8442V55.0145H52.2316V59.4308ZM37.5053 50.1684L39.2828 59.8578H38.8117L37.1854 51.0421L33.2986 59.4139H33.1238L29.249 51.0562L27.6107 59.8578H27.1012L28.9024 50.1684H29.3319L33.1831 58.5883L37.0728 50.1684H37.5053Z" fill="#717178"/>
<path fill-rule="evenodd" clip-rule="evenodd" d="M15.4684 55.2548H1.5449C1.50934 55.2585 1.47336 55.255 1.43931 55.2445C1.40527 55.2341 1.37391 55.2169 1.34729 55.194C1.32067 55.1712 1.29938 55.1433 1.2848 55.1122C1.27023 55.081 1.2627 55.0472 1.2627 55.0131C1.2627 54.979 1.27023 54.9452 1.2848 54.914C1.29938 54.8828 1.32067 54.8549 1.34729 54.8321C1.37391 54.8093 1.40527 54.7921 1.43931 54.7817C1.47336 54.7712 1.50934 54.7677 1.5449 54.7714H15.4684C15.504 54.7677 15.5399 54.7712 15.574 54.7817C15.608 54.7921 15.6394 54.8093 15.666 54.8321C15.6926 54.8549 15.7139 54.8828 15.7285 54.914C15.7431 54.9452 15.7506 54.979 15.7506 55.0131C15.7506 55.0472 15.7431 55.081 15.7285 55.1122C15.7139 55.1433 15.6926 55.1712 15.666 55.194C15.6394 55.2169 15.608 55.2341 15.574 55.2445C15.5399 55.255 15.504 55.2585 15.4684 55.2548ZM220.623 55.2548H206.7C206.664 55.2585 206.628 55.255 206.594 55.2445C206.56 55.2341 206.529 55.2169 206.502 55.194C206.476 55.1712 206.454 55.1433 206.44 55.1122C206.425 55.081 206.418 55.0472 206.418 55.0131C206.418 54.979 206.425 54.9452 206.44 54.914C206.454 54.8828 206.476 54.8549 206.502 54.8321C206.529 54.8093 206.56 54.7921 206.594 54.7817C206.628 54.7712 206.664 54.7677 206.7 54.7714H220.623C220.659 54.7677 220.695 54.7712 220.729 54.7817C220.763 54.7921 220.794 54.8093 220.821 54.8321C220.848 54.8549 220.869 54.8828 220.884 54.914C220.898 54.9452 220.906 54.979 220.906 55.0131C220.906 55.0472 220.898 55.081 220.884 55.1122C220.869 55.1433 220.848 55.1712 220.821 55.194C220.794 55.2169 220.763 55.2341 220.729 55.2445C220.695 55.255 220.659 55.2585 220.623 55.2548ZM193.884 59.4308V59.8578H188.273V50.1684H193.727V50.5953H188.735V54.5847H193.351V55.0145H188.735V59.4308H193.884ZM169.393 55.2209V50.5982H172.602C172.958 50.5925 173.312 50.652 173.645 50.7735C173.95 50.8793 174.231 51.0416 174.471 51.2513C174.709 51.463 174.897 51.7198 175.025 52.0051C175.152 52.2904 175.216 52.598 175.212 52.9081C175.214 53.2269 175.151 53.5429 175.025 53.8383C174.903 54.1158 174.719 54.3646 174.486 54.5678C174.248 54.7803 173.967 54.9431 173.659 55.0456C173.321 55.1665 172.963 55.2259 172.602 55.2209H169.393ZM174.116 55.3453C174.75 55.0581 175.247 54.5533 175.508 53.9316C175.642 53.6096 175.709 53.2659 175.706 52.9194C175.711 52.5366 175.631 52.157 175.472 51.8055C175.326 51.4749 175.105 51.1787 174.827 50.9375C174.542 50.6902 174.21 50.4981 173.849 50.372C173.455 50.2294 173.038 50.1575 172.617 50.1599H168.928V59.8521H169.393V55.6507H172.513L175.155 59.8578H175.692L173.025 55.6337C173.401 55.6022 173.767 55.5064 174.107 55.351L174.116 55.3453ZM155.562 56.841C155.335 57.3774 154.997 57.8649 154.569 58.2748C154.141 58.6846 153.632 59.0085 153.07 59.2273C151.838 59.6801 150.473 59.6801 149.24 59.2273C148.679 59.002 148.17 58.6745 147.741 58.2631C147.316 57.8542 146.983 57.3676 146.76 56.8325C146.524 56.2611 146.405 55.6515 146.411 55.0371C146.406 54.4201 146.525 53.8078 146.76 53.2333C146.982 52.6919 147.315 52.1986 147.741 51.7828C148.166 51.3679 148.677 51.0407 149.24 50.8215C150.471 50.358 151.84 50.358 153.07 50.8215C153.634 51.0392 154.145 51.3644 154.572 51.7772C154.997 52.1906 155.334 52.6795 155.562 53.2163C155.801 53.796 155.92 54.4142 155.914 55.0371C155.919 55.6544 155.8 56.2669 155.562 56.841ZM155.997 53.0297C155.752 52.4356 155.382 51.8954 154.911 51.4419C154.44 50.9884 153.877 50.6311 153.257 50.3918C152.586 50.1357 151.87 50.007 151.148 50.0129C150.429 50.0067 149.717 50.1354 149.05 50.3918C148.43 50.6333 147.867 50.9924 147.396 51.4472C146.925 51.9021 146.556 52.4433 146.31 53.0382C146.047 53.6677 145.915 54.3397 145.919 55.0173C145.911 55.6953 146.044 56.368 146.31 56.9965C146.557 57.5876 146.927 58.1247 147.398 58.5752C147.87 59.0258 148.431 59.3803 149.05 59.6174C149.715 59.8801 150.429 60.01 151.148 59.9991C151.871 60.0097 152.588 59.8798 153.257 59.6174C153.878 59.3799 154.442 59.025 154.916 58.5742C155.385 58.1272 155.753 57.5931 155.997 57.005C156.257 56.375 156.387 55.7029 156.379 55.0258C156.386 54.3424 156.257 53.6639 155.997 53.0269V53.0297ZM128.058 50.1684H135.136V50.5953H131.833V59.8578H131.367V50.5953H128.058V50.1684ZM115.883 55.3849C116.188 55.5685 116.446 55.8148 116.638 56.1059C116.848 56.4483 116.95 56.8406 116.934 57.2368C116.943 57.6264 116.86 58.013 116.692 58.3678C116.529 58.7013 116.291 58.9966 115.995 59.2329C115.681 59.4769 115.323 59.6638 114.938 59.7843C114.504 59.9188 114.049 59.9847 113.593 59.9794C113.101 59.9839 112.612 59.9123 112.144 59.7673C111.733 59.6432 111.351 59.4424 111.021 59.1764C110.71 58.9187 110.462 58.5981 110.296 58.2377C110.124 57.8544 110.039 57.4414 110.044 57.0248H110.503C110.497 57.3814 110.574 57.7349 110.728 58.0596C110.874 58.3649 111.089 58.636 111.356 58.8541C111.637 59.0881 111.966 59.2642 112.322 59.3715C112.732 59.4918 113.158 59.5519 113.587 59.5496C113.981 59.5545 114.373 59.4972 114.748 59.3799C115.08 59.281 115.388 59.1227 115.658 58.9134C115.906 58.7159 116.108 58.4701 116.25 58.1925C116.393 57.9015 116.465 57.5835 116.46 57.2623C116.476 56.9332 116.39 56.6071 116.215 56.3236C116.047 56.0807 115.823 55.8784 115.56 55.7327C115.265 55.5699 114.948 55.448 114.618 55.3708C114.259 55.2803 113.892 55.1983 113.516 55.1106C113.14 55.023 112.728 54.941 112.331 54.8279C111.964 54.7355 111.613 54.5936 111.288 54.4066C110.986 54.2308 110.728 53.9932 110.533 53.7111C110.322 53.3804 110.219 52.9977 110.236 52.6113C110.231 52.2459 110.309 51.8838 110.467 51.551C110.623 51.2409 110.849 50.9677 111.128 50.7509C111.435 50.5196 111.785 50.346 112.159 50.2391C112.594 50.1136 113.046 50.0516 113.501 50.0553C113.945 50.0501 114.386 50.1151 114.807 50.2476C115.174 50.3721 115.511 50.5642 115.8 50.8131C116.074 51.0482 116.292 51.3376 116.437 51.6613C116.591 52.009 116.667 52.3836 116.662 52.7611H116.2C116.214 52.4524 116.155 52.1447 116.027 51.8608C115.899 51.5769 115.706 51.3241 115.462 51.1212C114.905 50.6919 114.202 50.4726 113.486 50.5049C112.76 50.4699 112.043 50.6757 111.457 51.0873C111.212 51.2666 111.016 51.4988 110.884 51.7647C110.752 52.0307 110.689 52.3228 110.698 52.6169C110.685 52.9337 110.771 53.247 110.947 53.516C111.121 53.748 111.345 53.9409 111.605 54.0815C111.899 54.2418 112.215 54.3618 112.544 54.4377C112.891 54.5254 113.255 54.6074 113.631 54.6781C114.008 54.7487 114.422 54.859 114.816 54.9608C115.185 55.057 115.539 55.2006 115.868 55.3877L115.883 55.3849ZM91.8395 56.6233L94.4228 50.83L97.0653 56.6233H91.8395ZM94.6124 50.1656H94.2095L89.8843 59.8578H90.3909L91.6381 57.0502H97.2401L98.5169 59.8578H99.0264L94.6124 50.1656ZM73.4013 55.3199H78.8818C78.8627 55.9709 78.7181 56.6131 78.4552 57.2142C78.2155 57.7679 77.8602 58.2692 77.411 58.6877C76.9618 59.1062 76.4281 59.4332 75.8423 59.6486C75.2163 59.8802 74.5496 59.9953 73.8782 59.9878C73.1771 59.9928 72.4817 59.867 71.8312 59.6174C71.228 59.3764 70.6826 59.0204 70.2285 58.5713C69.7698 58.123 69.4137 57.5887 69.1827 57.0021C68.9299 56.3705 68.8043 55.6991 68.8124 55.023C68.8073 54.3459 68.938 53.674 69.1976 53.0438C69.4354 52.4554 69.7951 51.9189 70.2551 51.4662C70.7088 51.0181 71.2558 50.6656 71.8608 50.4314C72.4992 50.1753 73.1857 50.0464 73.8782 50.0525C74.4541 50.0515 75.0267 50.1355 75.5757 50.3013C76.0949 50.4587 76.5849 50.6934 77.0273 50.9968C77.4492 51.2914 77.8149 51.6529 78.1086 52.0656C78.4006 52.4811 78.6021 52.9484 78.7011 53.4397H78.2123C78.107 53.0097 77.9148 52.6034 77.6465 52.2437C77.3749 51.8847 77.0437 51.5705 76.6659 51.3135C76.2699 51.046 75.8333 50.8382 75.3713 50.6971C74.8848 50.5486 74.3772 50.4723 73.8664 50.4709C73.2384 50.4654 72.6157 50.5808 72.0356 50.8102C71.4901 51.0314 70.9957 51.3533 70.581 51.7574C70.1666 52.1728 69.8416 52.6618 69.6241 53.1965C69.1601 54.3729 69.1601 55.6702 69.6241 56.8466C69.8405 57.378 70.1636 57.864 70.5751 58.2773C70.9873 58.6821 71.4825 59.0016 72.0297 59.216C73.1695 59.6419 74.4325 59.6589 75.5846 59.264C76.0894 59.0898 76.5556 58.827 76.9592 58.4893C77.3556 58.1486 77.6804 57.7389 77.916 57.282C78.1699 56.7998 78.3257 56.276 78.3752 55.7383H73.4013V55.3199ZM52.2316 59.4308H57.3833V59.8578H51.7547V50.1684H57.2115V50.5953H52.2316V54.5847H56.8442V55.0145H52.2316V59.4308ZM37.5053 50.1684L39.2828 59.8578H38.8117L37.1854 51.0421L33.2986 59.4139H33.1238L29.249 51.0562L27.6107 59.8578H27.1012L28.9024 50.1684H29.3319L33.1831 58.5883L37.0728 50.1684H37.5053Z" stroke="#717178" stroke-width="0.6" mask="url(#path-2-outside-1_120_212)"/>
</svg>
