<svg width="204" height="189" viewBox="0 0 204 189" fill="none" xmlns="http://www.w3.org/2000/svg">
<path d="M198.39 110.85C195.424 127.729 187.925 143.483 176.695 156.428C165.464 169.373 150.926 179.02 134.635 184.338C118.343 189.657 100.913 190.445 84.208 186.619C67.5032 182.794 52.1529 174.498 39.7999 162.62L42.9499 159.62H43.2199C54.9309 170.785 69.4353 178.587 85.2064 182.204C100.978 185.82 117.432 185.118 132.838 180.172C148.244 175.225 162.031 166.217 172.749 154.095C183.466 141.973 190.718 127.186 193.74 111.29L198.39 110.85ZM105.3 0C122.824 0.0111847 140.002 4.88794 154.918 14.0869C169.834 23.2858 181.903 36.4456 189.78 52.1L185.11 52.83C176.882 37.0981 164.187 24.1491 148.622 15.6102C133.056 7.07133 115.314 3.32347 97.6254 4.83763C79.9363 6.35179 63.0894 13.0604 49.2016 24.1205C35.3138 35.1805 25.0047 50.0986 19.5699 67L16.1499 63.12C22.6609 44.6733 34.73 28.6984 50.6954 17.3945C66.6609 6.09061 85.7378 0.0135756 105.3 0V0Z" fill="#464451"/>
<path d="M173.43 113.63C170.517 124.399 165.072 134.315 157.549 142.553C150.027 150.791 140.644 157.111 130.184 160.988C119.723 164.864 108.488 166.185 97.4136 164.839C86.3394 163.493 75.7473 159.52 66.5199 153.25L69.0699 152.79C77.9962 158.49 88.1259 162.035 98.6582 163.145C109.191 164.255 119.837 162.9 129.755 159.186C139.673 155.473 148.592 149.504 155.806 141.75C163.02 133.996 168.331 124.67 171.32 114.51L173.18 113.65L173.43 113.63ZM105.83 25.2702C117.29 25.2788 128.573 28.0953 138.693 33.4733C148.813 38.8513 157.46 46.627 163.88 56.1202L161.88 56.4202C159.564 53.0555 156.954 49.9032 154.08 47.0002C145.877 38.8097 135.724 32.8426 124.578 29.6613C113.431 26.4799 101.658 26.1892 90.3682 28.8163C79.0782 31.4435 68.643 36.9021 60.0461 44.6777C51.4492 52.4533 44.9737 62.2898 41.2299 73.2602H41.0099L39.4199 73.0002C44.093 59.0872 53.0168 46.9928 64.9322 38.4236C76.8477 29.8544 91.1531 25.243 105.83 25.2402V25.2702Z" fill="#464451"/>
<path fill-rule="evenodd" clip-rule="evenodd" d="M48.5099 82.3601C53.5799 81.4301 57.9799 81.5501 58.3399 82.6201C58.6999 83.6901 54.9999 86.1201 49.9299 87.0001C44.8599 87.8801 40.3799 87.0001 39.9999 86.0001C39.6199 85.0001 43.4399 83.3201 48.4999 82.4001L48.5099 82.3601ZM123.2 68.4001L151.49 63.9001C159.43 62.6201 165.957 61.5534 171.07 60.7001C176.802 59.6678 182.588 58.9601 188.4 58.5801C182.79 60.2746 177.087 61.6436 171.32 62.6801L123.93 72.0701L123.2 68.4001ZM61.5899 86.1501C58.8299 86.9101 38.0999 92.9101 36.1399 86.6701C34.3099 80.8301 57.0299 78.6701 60.1399 78.2801L123.14 68.4001L123.87 72.0701C113.12 74.5001 71.6299 83.6801 61.5899 86.1501Z" fill="#464451"/>
<path d="M181.06 89.7598C181.081 89.4632 181.038 89.1656 180.932 88.8876C180.827 88.6096 180.662 88.3578 180.45 88.1498C179.79 87.6298 178.62 87.9598 177.94 88.2598C177.049 88.6269 176.255 89.195 175.62 89.9198C175.44 90.1498 175.08 90.6698 175.29 90.9198C175.408 91.0675 175.569 91.1756 175.75 91.2298C176.303 91.4176 176.894 91.4657 177.47 91.3698C178.811 91.206 180.067 90.6254 181.06 89.7098V89.7598ZM151.71 105.71C153.13 104.06 154.9 101.76 155.49 99.6398C155.85 98.3598 155.82 97.6398 155.56 97.3198C155.482 97.2576 155.391 97.2145 155.294 97.1936C155.197 97.1728 155.096 97.1749 155 97.1998C154.464 97.2785 153.954 97.4805 153.51 97.7898C152.662 98.2848 151.957 98.9906 151.463 99.8387C150.969 100.687 150.703 101.648 150.69 102.63C150.828 103.735 151.174 104.804 151.71 105.78V105.71ZM133.71 114.4C133.77 113.83 133.8 112.78 133.19 112.53C133.084 112.478 132.968 112.452 132.85 112.452C132.732 112.452 132.616 112.478 132.51 112.53C131.63 113.1 133.32 114.24 133.72 114.47L133.71 114.4ZM119.77 116.67C126.05 101.56 126.28 90.7698 124.36 85.2198C123.63 83.1098 122.63 81.8598 121.61 81.5098C120.59 81.1598 119.73 81.6898 118.82 82.9698C116.72 85.9698 115.31 92.6098 116.42 103.53C117.05 109.63 118.26 113.87 119.78 116.74L119.77 116.67ZM96.9101 120.4C96.9178 120.113 96.8637 119.828 96.7516 119.564C96.6394 119.3 96.4718 119.063 96.2601 118.87C95.9082 118.642 95.5083 118.499 95.0918 118.453C94.6754 118.406 94.2538 118.456 93.8601 118.6C93.2686 118.769 92.7277 119.081 92.2848 119.508C91.8419 119.935 91.5107 120.465 91.3201 121.05C91.2631 121.193 91.2612 121.352 91.3148 121.496C91.3684 121.64 91.4736 121.759 91.6101 121.83C91.9188 121.989 92.2627 122.068 92.6101 122.06C94.167 121.905 95.6528 121.331 96.9101 120.4ZM70.0001 143.34C70.5357 143.496 71.0925 143.567 71.6501 143.55C73.5201 143.46 74.5101 141.44 74.4901 136.07C73.2445 138.639 71.74 141.075 70.0001 143.34ZM60.5701 141.08C58.8701 140.14 57.0301 139.08 55.0601 138.08C56.0601 140.74 57.9701 144.58 60.6901 145.75C62.8401 146.68 64.8901 145.54 66.4801 144.12C64.7301 143.36 62.7601 142.28 60.5701 141.08ZM54.1401 135.39C56.8401 136.71 59.3101 138.07 61.5401 139.3C64.0101 140.65 66.1701 141.84 67.9801 142.61C70.6165 139.245 72.7643 135.525 74.3601 131.56C74.3601 130.5 74.3601 129.31 74.3601 128.01C74.3601 123.8 74.2901 118.49 73.7801 113.37C72.8001 104 70.2901 95.2798 63.2501 95.9998C60.3701 96.2898 57.4401 98.6198 55.2501 102.57C52.9195 107.15 51.7421 112.231 51.8201 117.37C51.7219 123.457 52.5033 129.526 54.1401 135.39ZM42.7801 147.17C45.2422 143.335 46.5571 138.877 46.5701 134.32C43.2762 133.064 39.8663 132.136 36.3901 131.55C25.0101 129.7 16.1301 133.46 11.4801 138.67C8.9701 141.49 7.1401 145.45 8.3301 149.25C10.0201 154.67 17.0001 156.68 22.1501 156.88C23.4615 156.929 24.7748 156.886 26.0801 156.75C32.8301 156.05 39.0001 153 42.7801 147.17ZM45.1101 108C45.8601 107 47.7601 104.07 47.0501 102.82C46.9901 102.72 46.9301 102.66 46.8701 102.66C46.8101 102.66 46.5601 102.75 46.3501 102.96C45.6601 103.63 45.0701 105.21 45.1101 108ZM6.8901 68.5098C7.8901 69.5098 8.8901 70.5098 9.9501 71.7198C12.8101 74.7198 16.4201 78.5598 20.2701 82.0498C25.2066 80.5786 30.3537 79.9398 35.5001 80.1598C37.5223 80.2037 39.5339 80.4652 41.5001 80.9398C40.3307 81.2821 39.2087 81.7692 38.1601 82.3898C37.2417 82.2668 36.3166 82.2 35.3901 82.1898C30.8893 82.0006 26.3856 82.4894 22.0301 83.6398C26.3701 87.3598 30.9101 90.4798 35.0301 91.4798C40.1101 92.7198 43.8301 91.8898 45.7401 90.2698C46.0847 90.0376 46.3773 89.7364 46.5994 89.3852C46.8214 89.0341 46.9681 88.6406 47.0302 88.2298C47.0922 87.8189 47.0683 87.3997 46.9598 86.9986C46.8513 86.5975 46.6608 86.2233 46.4001 85.8998C45.881 85.2435 45.2433 84.6906 44.5201 84.2698C45.2401 84.0498 46.3201 83.6798 46.9601 83.5298C47.3738 83.8627 47.7376 84.2533 48.0401 84.6898C48.4545 85.2189 48.758 85.8261 48.9324 86.4751C49.1068 87.1242 49.1486 87.8017 49.0553 88.4673C48.9619 89.1328 48.7354 89.7727 48.3891 90.3488C48.0429 90.9248 47.5841 91.4251 47.0401 91.8198C44.6901 93.8198 40.3101 94.8698 34.5201 93.4498C29.7801 92.2898 24.5901 88.5998 19.7701 84.3498C14.9485 85.9612 10.6648 88.8713 7.3901 92.7598C4.10492 96.6847 2.20987 101.586 2.0001 106.7C1.94128 108.434 2.10937 110.169 2.5001 111.86C6.0001 126.4 20.4501 124.45 31.0701 119.15C35.6126 116.935 39.7262 113.931 43.2201 110.28C43.2201 109.95 43.1601 109.63 43.1401 109.28C42.8301 105.1 43.7801 102.62 44.9101 101.47C45.1718 101.182 45.4917 100.953 45.8485 100.798C46.2053 100.642 46.591 100.565 46.9801 100.57C47.3615 100.595 47.7302 100.717 48.0507 100.926C48.3711 101.134 48.6326 101.421 48.8101 101.76C49.1114 102.441 49.2477 103.184 49.2077 103.927C49.1677 104.671 48.9527 105.395 48.5801 106.04C47.7288 107.81 46.6349 109.452 45.3301 110.92C45.6701 114.09 46.2701 117.2 46.8701 120.27C47.8006 124.427 48.3826 128.655 48.6101 132.91C49.6801 133.33 50.7201 133.78 51.7201 134.23C50.3646 128.691 49.7194 123.002 49.8001 117.3C49.7232 111.828 50.9866 106.421 53.4801 101.55C56.0001 96.9998 59.5101 94.3098 63.0501 93.9998C71.7301 93.1298 74.7201 102.79 75.7701 113.21C76.2801 118.39 76.3201 123.77 76.3501 128.04C76.3501 128.91 76.3501 129.73 76.3501 130.49C78.2601 132.6 80.7901 134.97 83.6001 135.75C84.6311 136.038 85.7171 136.07 86.7631 135.842C87.8092 135.613 88.7832 135.132 89.6001 134.44C90.8901 133.44 92.7801 130.85 94.3401 127.95C95.2173 126.377 95.931 124.718 96.4701 123C94.7901 123.88 92.3201 124.64 90.5501 123.57C90.027 123.265 89.6249 122.79 89.4118 122.223C89.1986 121.656 89.1874 121.034 89.3801 120.46C89.6709 119.558 90.1771 118.741 90.8549 118.078C91.5327 117.416 92.3617 116.929 93.2701 116.66C95.5301 115.98 98.0801 116.74 98.7701 119.2C99.5012 118.61 100.326 118.147 101.21 117.83C101.49 117.735 101.785 117.697 102.08 117.72C102.374 117.743 102.661 117.826 102.922 117.964C103.183 118.102 103.413 118.291 103.599 118.521C103.784 118.75 103.921 119.015 104 119.3C104.346 120.8 104.386 122.354 104.12 123.87C103.83 126.93 103.45 130.81 106.34 131.78C108.02 132.34 110.42 130.01 111.44 128.94C112.761 127.504 113.984 125.98 115.1 124.38C116.233 122.793 117.427 120.963 118.68 118.89C116 114.67 114.91 108.69 114.41 103.81C113.24 92.3298 114.83 85.1598 117.17 81.8098C118.66 79.7098 120.49 79.0098 122.26 79.5998C123.88 80.1498 125.35 81.8398 126.26 84.5998C128.36 90.6598 128.12 102.4 121.15 118.6L121.08 118.74C121.881 119.836 122.962 120.696 124.21 121.23C126.94 122.31 129.82 120.99 131.7 118.94C132.34 118.199 132.841 117.348 133.18 116.43C131.81 115.8 130.18 114.43 130.18 112.82C130.224 112.4 130.366 111.996 130.596 111.641C130.826 111.287 131.137 110.992 131.503 110.782C131.869 110.571 132.28 110.45 132.702 110.429C133.124 110.407 133.545 110.487 133.93 110.66C135.68 111.39 135.93 113.39 135.62 115.04C138.21 115.38 141.01 114.22 143.18 112.94C145.745 111.355 148.097 109.45 150.18 107.27C149.356 105.889 148.837 104.348 148.66 102.75C148.44 99.9198 150.38 97.3298 152.4 96.0498C153.77 95.1798 155.86 94.5298 157.09 95.9898C157.76 96.7798 157.98 98.1298 157.42 100.16C156.503 102.714 155.066 105.05 153.2 107.02L152.72 107.55C153.174 108.293 153.734 108.966 154.38 109.55C156.12 111 158.44 111.08 160.9 110.38C163.765 109.453 166.446 108.032 168.82 106.18C171.213 104.433 173.401 102.42 175.34 100.18C176.511 98.7686 177.594 97.2857 178.58 95.7398C179.22 94.7533 179.778 93.7165 180.25 92.6398C178.602 93.4583 176.706 93.6261 174.94 93.1098C174.359 92.9326 173.86 92.5547 173.533 92.0436C173.205 91.5325 173.069 90.9215 173.15 90.3198C173.43 88.4998 175.51 86.9998 177.07 86.3198C178.63 85.6398 180.31 85.4298 181.64 86.4798C182.154 86.9019 182.538 87.4598 182.75 88.0898C183.75 87.2698 185.49 86.2198 186.85 86.8398C188.21 87.4598 188.19 88.8398 188.02 90.0898C187.93 90.7098 187.87 91.3198 187.84 91.9398C187.681 94.0182 187.86 96.1087 188.37 98.1298C188.71 99.2198 189.2 100.03 189.9 100.13C191.53 100.47 193.69 98.9498 195.72 96.7998C198.63 93.7098 201.17 89.3898 201.8 86.9998L203.8 87.5198C203.1 90.1598 200.36 94.8698 197.22 98.1898C194.75 100.82 191.96 102.63 189.53 102.13C185.77 101.36 185.68 94.7398 185.84 91.7998C185.84 91.1198 185.94 90.4398 186.03 89.7998C186.115 89.4447 186.115 89.0748 186.03 88.7198C185.948 88.6967 185.862 88.6967 185.78 88.7198C185.28 88.858 184.811 89.0924 184.4 89.4098C183.907 89.817 183.439 90.2545 183 90.7198C182.48 94.2798 179.26 98.7198 177 101.54C174.949 103.899 172.642 106.022 170.12 107.87C167.542 109.859 164.639 111.388 161.54 112.39C157.76 113.46 154.2 112.95 151.79 109.68C151.64 109.49 151.5 109.29 151.37 109.09C149.252 111.257 146.878 113.157 144.3 114.75C141.63 116.32 138.3 117.58 135.18 117.07C134.748 118.28 134.094 119.4 133.25 120.37C130.79 123.06 127.06 124.58 123.51 123.18C122.159 122.621 120.96 121.751 120.01 120.64C118.883 122.48 117.807 124.12 116.78 125.56C115.611 127.242 114.325 128.839 112.93 130.34C111.22 132.13 108.42 134.61 105.72 133.7C101.3 132.22 101.72 127.44 102.12 123.7C102.33 122.479 102.33 121.231 102.12 120.01C102.03 119.76 102.03 119.75 101.77 119.82C101.296 119.983 100.853 120.227 100.46 120.54C99.8901 120.94 99.3601 121.3 98.8901 121.61C98.4013 124.175 97.4924 126.641 96.2001 128.91C94.5201 132.03 92.4001 134.91 90.9101 136.04C85.7601 140.04 80.6001 137.48 76.4801 133.5C76.9001 142.25 75.2601 145.44 71.7701 145.61C70.6731 145.621 69.5838 145.424 68.5601 145.03C67.862 145.759 67.0837 146.406 66.2401 146.96C65.3397 147.617 64.2847 148.031 63.1774 148.16C62.07 148.29 60.948 148.131 59.9201 147.7C56.0301 146.03 53.7101 140.7 52.4901 136.87C51.2501 136.28 49.9601 135.7 48.6301 135.15C48.4882 139.823 47.0666 144.368 44.5201 148.29C40.4401 154.65 33.7001 158.04 26.3101 158.79C23.5831 159.092 20.8264 158.987 18.1301 158.48C11.3801 157.14 7.6501 153.83 6.4101 149.88C5.0001 145.36 7.0001 140.68 10.0001 137.32C15.0001 131.66 24.5901 127.57 36.7501 129.54C40.0969 130.1 43.3844 130.971 46.5701 132.14C46.2952 128.284 45.7371 124.454 44.9001 120.68C44.4001 118.11 43.9001 115.51 43.5401 112.87C37.2201 119.08 27.0801 124.44 18.1601 125.06C9.0001 125.69 2.6801 121.27 0.570096 112.33C0.131422 110.466 -0.0602214 108.553 9.5861e-05 106.64C0.215715 101.08 2.26169 95.7471 5.8201 91.4698C9.0948 87.5688 13.3262 84.5848 18.1001 82.8098C14.4901 79.4798 11.1701 75.9598 8.4801 73.1098C7.3001 71.8698 6.2401 70.7498 5.4801 69.9398L6.8901 68.5098Z" fill="#464451"/>
<path d="M180.74 127.51C181.122 127.671 181.521 127.789 181.93 127.86C182.231 127.916 182.539 127.916 182.84 127.86C183.083 127.806 183.307 127.689 183.49 127.52C183.674 127.343 183.818 127.128 183.91 126.89C184.01 126.66 184.055 126.41 184.04 126.16C184.03 125.911 183.954 125.669 183.82 125.46C183.646 125.21 183.429 124.994 183.18 124.82C182.838 124.581 182.468 124.383 182.08 124.23L180.64 123.65C180.255 123.487 179.852 123.369 179.44 123.3C179.139 123.244 178.831 123.244 178.53 123.3C178.288 123.356 178.064 123.473 177.88 123.64C177.704 123.818 177.565 124.028 177.47 124.26C177.372 124.494 177.325 124.746 177.33 125C177.342 125.25 177.422 125.491 177.56 125.7C177.733 125.952 177.95 126.173 178.2 126.35C178.543 126.586 178.912 126.78 179.3 126.93L180.74 127.51ZM180.35 128.51L178.91 127.93C178.394 127.731 177.906 127.466 177.46 127.14C177.125 126.886 176.846 126.566 176.64 126.2C176.473 125.868 176.387 125.501 176.39 125.13C176.404 124.727 176.492 124.33 176.65 123.96C176.795 123.59 177.009 123.251 177.28 122.96C177.531 122.687 177.848 122.484 178.2 122.37C178.6 122.244 179.023 122.207 179.44 122.26C179.987 122.337 180.521 122.485 181.03 122.7L182.47 123.28C182.986 123.481 183.474 123.75 183.92 124.08C184.256 124.332 184.535 124.652 184.74 125.02C184.902 125.321 184.991 125.657 185 126C184.958 126.809 184.645 127.581 184.11 128.19C183.858 128.461 183.542 128.664 183.19 128.78C182.788 128.901 182.366 128.936 181.95 128.88C181.401 128.821 180.862 128.686 180.35 128.48V128.51ZM174.69 134.79C174.917 134.935 175.173 135.027 175.44 135.06C175.652 135.083 175.866 135.049 176.06 134.96C176.251 134.877 176.424 134.759 176.57 134.61C176.722 134.448 176.856 134.27 176.97 134.08C177.037 133.96 177.107 133.83 177.18 133.69C177.25 133.54 177.31 133.4 177.37 133.25C177.43 133.1 177.49 132.96 177.53 132.83C177.57 132.7 177.62 132.57 177.65 132.46L176.73 131.9C176.417 131.698 176.081 131.533 175.73 131.41C175.471 131.315 175.193 131.284 174.92 131.32C174.694 131.346 174.481 131.44 174.31 131.59C174.117 131.753 173.955 131.95 173.83 132.17C173.697 132.38 173.6 132.609 173.54 132.85C173.48 133.066 173.48 133.294 173.54 133.51C173.612 133.746 173.739 133.962 173.91 134.14C174.131 134.384 174.391 134.59 174.68 134.75L174.69 134.79ZM174.15 135.69H174.09C173.402 135.332 172.874 134.729 172.61 134C172.519 133.621 172.51 133.226 172.584 132.843C172.658 132.46 172.814 132.098 173.04 131.78C173.24 131.435 173.501 131.13 173.81 130.88C174.101 130.649 174.444 130.494 174.81 130.43C175.192 130.346 175.588 130.346 175.97 130.43C176.45 130.552 176.909 130.748 177.33 131.01L179.06 132.01C179.523 132.281 179.944 132.618 180.31 133.01C180.59 133.292 180.802 133.634 180.93 134.01C181.025 134.377 181.025 134.763 180.93 135.13C180.824 135.56 180.652 135.972 180.42 136.35C180.226 136.7 180.005 137.034 179.76 137.35C179.55 137.59 179.36 137.79 179.18 137.96C179.132 138.009 179.078 138.053 179.02 138.09C178.996 138.105 178.968 138.113 178.94 138.113C178.912 138.113 178.884 138.105 178.86 138.09L178.5 137.87C178.477 137.857 178.457 137.84 178.442 137.82C178.426 137.799 178.415 137.775 178.41 137.75C178.392 137.698 178.392 137.642 178.41 137.59C178.619 137.36 178.816 137.12 179 136.87C179.19 136.6 179.39 136.31 179.57 136C179.77 135.699 179.9 135.357 179.95 135C179.982 134.732 179.934 134.46 179.81 134.22C179.675 133.966 179.483 133.747 179.25 133.58C178.977 133.367 178.689 133.173 178.39 133L178.29 132.94C178.2 133.18 178.1 133.43 178.01 133.7C177.894 133.991 177.754 134.272 177.59 134.54C177.404 134.852 177.186 135.143 176.94 135.41C176.715 135.655 176.443 135.852 176.14 135.99C175.826 136.129 175.481 136.181 175.14 136.14C174.78 136.052 174.442 135.888 174.15 135.66V135.69ZM169.6 142.55C169.807 142.717 170.05 142.834 170.31 142.89C170.516 142.946 170.734 142.946 170.94 142.89C171.142 142.83 171.327 142.724 171.48 142.58C171.65 142.44 171.801 142.278 171.93 142.1C172.102 141.84 172.262 141.573 172.41 141.3C172.48 141.16 172.55 141.03 172.6 140.9L172.76 140.55L171.89 139.9C171.58 139.666 171.245 139.468 170.89 139.31C170.64 139.205 170.371 139.151 170.1 139.15C169.871 139.167 169.651 139.242 169.46 139.37C169.254 139.519 169.075 139.701 168.93 139.91C168.781 140.107 168.663 140.327 168.58 140.56C168.525 140.776 168.525 141.003 168.58 141.22C168.63 141.461 168.736 141.687 168.89 141.88C169.092 142.14 169.331 142.369 169.6 142.56V142.55ZM168.98 143.4H168.92C168.265 142.983 167.793 142.332 167.6 141.58C167.544 141.194 167.571 140.801 167.68 140.427C167.788 140.052 167.976 139.706 168.23 139.41C168.455 139.085 168.74 138.807 169.07 138.59C169.367 138.386 169.711 138.258 170.07 138.22C170.46 138.184 170.852 138.235 171.22 138.37C171.689 138.537 172.13 138.773 172.53 139.07L174.15 140.26C174.588 140.56 174.979 140.924 175.31 141.34C175.567 141.654 175.748 142.024 175.84 142.42C175.911 142.796 175.887 143.185 175.77 143.55C175.628 143.966 175.423 144.357 175.16 144.71C174.935 145.027 174.685 145.325 174.41 145.6C174.213 145.801 174.003 145.988 173.78 146.16L173.61 146.28C173.586 146.295 173.558 146.303 173.53 146.303C173.502 146.303 173.474 146.295 173.45 146.28L173.11 146.03C173.087 146.017 173.067 145.998 173.053 145.975C173.039 145.952 173.031 145.926 173.03 145.9C173.026 145.873 173.029 145.845 173.038 145.819C173.046 145.793 173.061 145.769 173.08 145.75C173.317 145.544 173.538 145.32 173.74 145.08C173.974 144.824 174.191 144.554 174.39 144.27C174.619 143.976 174.779 143.634 174.86 143.27C174.913 143.005 174.889 142.731 174.79 142.48C174.673 142.218 174.502 141.983 174.29 141.79C174.035 141.559 173.768 141.342 173.49 141.14L173.39 141.07L173.04 141.8C172.903 142.082 172.739 142.35 172.55 142.6C172.339 142.891 172.098 143.159 171.83 143.4C171.583 143.625 171.294 143.798 170.98 143.91C170.657 144.013 170.314 144.037 169.98 143.98C169.612 143.851 169.278 143.643 169 143.37L168.98 143.4ZM167.26 153.94L166.87 153.61C166.85 153.59 166.834 153.567 166.824 153.541C166.814 153.515 166.809 153.488 166.81 153.46C166.816 153.404 166.841 153.351 166.88 153.31L168.08 151.93L163.08 147.62L162.46 149.48C162.445 149.532 162.417 149.58 162.38 149.62C162.38 149.62 162.29 149.62 162.23 149.62L161.78 149.23C161.773 149.207 161.773 149.183 161.78 149.16C161.775 149.123 161.775 149.086 161.78 149.05L162.42 146.88C162.442 146.795 162.475 146.715 162.52 146.64L162.83 146.29C162.847 146.267 162.87 146.249 162.896 146.237C162.922 146.224 162.951 146.219 162.98 146.22C163.005 146.207 163.032 146.201 163.06 146.201C163.088 146.201 163.115 146.207 163.14 146.22L168.75 151.1L169.96 149.71C169.994 149.664 170.044 149.632 170.1 149.62C170.125 149.608 170.152 149.602 170.18 149.602C170.208 149.602 170.235 149.608 170.26 149.62L170.64 149.95C170.662 149.968 170.678 149.991 170.689 150.017C170.699 150.043 170.703 150.072 170.7 150.1C170.702 150.129 170.697 150.159 170.687 150.186C170.677 150.214 170.661 150.239 170.64 150.26L167.54 153.83C167.502 153.869 167.453 153.897 167.4 153.91C167.378 153.919 167.354 153.924 167.33 153.924C167.306 153.924 167.282 153.919 167.26 153.91V153.94ZM155 162.12L152.26 158.64C152.049 158.421 151.89 158.157 151.797 157.867C151.703 157.578 151.677 157.271 151.72 156.97C151.915 156.348 152.313 155.809 152.85 155.44L153.3 155.1L153.8 154.72C153.96 154.59 154.12 154.48 154.27 154.37L154.65 154.11C154.667 154.102 154.686 154.099 154.705 154.099C154.724 154.099 154.742 154.102 154.76 154.11L154.85 154.18L155.2 154.63C155.214 154.641 155.226 154.655 155.234 154.672C155.242 154.688 155.247 154.706 155.247 154.725C155.247 154.743 155.242 154.761 155.234 154.778C155.226 154.794 155.214 154.809 155.2 154.82L153.46 156.19C153.262 156.337 153.081 156.504 152.92 156.69C152.815 156.802 152.746 156.943 152.723 157.095C152.7 157.246 152.723 157.402 152.79 157.54C152.875 157.705 152.976 157.863 153.09 158.01L154.09 159.27L156.86 157.09C156.874 157.065 156.894 157.043 156.919 157.028C156.943 157.012 156.971 157.002 157 157C157.031 157.002 157.06 157.01 157.088 157.024C157.115 157.037 157.14 157.056 157.16 157.08L157.43 157.42C157.451 157.475 157.451 157.535 157.43 157.59C157.427 157.619 157.419 157.647 157.405 157.673C157.391 157.699 157.373 157.721 157.35 157.74L154.63 160L155.83 161.52C155.939 161.672 156.066 161.81 156.21 161.93C156.323 162.019 156.457 162.078 156.6 162.1C156.759 162.107 156.918 162.072 157.06 162C157.279 161.882 157.486 161.745 157.68 161.59L159.42 160.22C159.48 160.173 159.54 160.173 159.6 160.22L159.97 160.68C159.975 160.713 159.975 160.747 159.97 160.78C159.98 160.812 159.98 160.847 159.97 160.88C159.866 160.983 159.755 161.08 159.64 161.17L159.19 161.55L158.69 161.96L158.24 162.31C157.756 162.747 157.14 163.011 156.49 163.06C156.186 163.027 155.894 162.926 155.636 162.763C155.378 162.6 155.16 162.38 155 162.12ZM146.62 166L145.75 164.65C145.408 164.163 145.161 163.617 145.02 163.04C144.925 162.612 144.925 162.168 145.02 161.74C145.111 161.372 145.286 161.03 145.53 160.74C145.763 160.461 146.036 160.218 146.34 160.02C146.632 159.822 146.94 159.648 147.26 159.5L148.07 159.12C148.18 159.07 148.26 159.12 148.3 159.12L148.62 159.61C148.627 159.636 148.627 159.664 148.62 159.69C148.62 159.69 148.62 159.75 148.54 159.78L148.2 159.97L147.77 160.2L147.31 160.47L146.86 160.75C146.634 160.895 146.435 161.078 146.27 161.29C146.113 161.501 146.013 161.749 145.98 162.01C145.945 162.315 145.972 162.625 146.06 162.92C146.185 163.317 146.367 163.694 146.6 164.04L147.48 165.38C147.695 165.734 147.965 166.051 148.28 166.32C148.513 166.523 148.785 166.676 149.08 166.77C149.333 166.83 149.597 166.83 149.85 166.77C150.115 166.712 150.366 166.604 150.59 166.45L151.01 166.16L151.44 165.86L151.83 165.57L152.13 165.34C152.15 165.326 152.172 165.316 152.196 165.311C152.22 165.306 152.245 165.307 152.269 165.313C152.292 165.318 152.315 165.329 152.334 165.344C152.353 165.359 152.369 165.378 152.38 165.4L152.64 165.8C152.659 165.851 152.659 165.908 152.64 165.96C152.622 166.019 152.587 166.071 152.54 166.11L152.27 166.37L151.95 166.63C151.84 166.72 151.7 166.81 151.55 166.92C151.4 167.03 151.23 167.15 151.02 167.28C150.71 167.477 150.373 167.629 150.02 167.73C149.65 167.84 149.259 167.861 148.88 167.79C148.45 167.705 148.044 167.528 147.69 167.27C147.261 166.913 146.899 166.483 146.62 166ZM139.06 173.37L135.72 166C135.685 165.917 135.685 165.823 135.72 165.74C135.758 165.661 135.821 165.598 135.9 165.56L136.48 165.3C136.576 165.25 136.682 165.223 136.79 165.22C136.867 165.234 136.94 165.269 137 165.32L143 169.99L140.22 163.85C140.2 163.798 140.2 163.741 140.22 163.69C140.227 163.664 140.24 163.64 140.257 163.619C140.274 163.598 140.296 163.582 140.32 163.57L140.88 163.32C140.931 163.3 140.988 163.3 141.04 163.32C141.094 163.343 141.137 163.386 141.16 163.44L144.46 170.73C144.494 170.813 144.494 170.907 144.46 170.99C144.425 171.07 144.36 171.135 144.28 171.17L143.64 171.46C143.58 171.502 143.508 171.524 143.435 171.524C143.362 171.524 143.29 171.502 143.23 171.46L137.23 166.78C137.222 166.776 137.214 166.774 137.205 166.774C137.196 166.774 137.188 166.776 137.18 166.78L139.95 172.91C139.97 172.965 139.97 173.025 139.95 173.08C139.94 173.106 139.926 173.13 139.907 173.151C139.888 173.171 139.865 173.188 139.84 173.2L139.3 173.44C139.251 173.451 139.199 173.451 139.15 173.44C139.15 173.44 139.09 173.44 139.06 173.38V173.37ZM133.62 175.37L130.88 167.74C130.86 167.688 130.86 167.631 130.88 167.58C130.903 167.526 130.946 167.483 131 167.46L131.6 167.25C131.625 167.237 131.652 167.231 131.68 167.231C131.708 167.231 131.735 167.237 131.76 167.25C131.811 167.278 131.85 167.324 131.87 167.38L134.6 175C134.62 175.055 134.62 175.115 134.6 175.17C134.592 175.197 134.577 175.221 134.558 175.242C134.539 175.263 134.516 175.279 134.49 175.29L133.89 175.5C133.866 175.515 133.838 175.523 133.81 175.523C133.782 175.523 133.754 175.515 133.73 175.5C133.699 175.485 133.673 175.462 133.654 175.434C133.635 175.406 133.623 175.374 133.62 175.34V175.37ZM123 171.77C122.911 171.486 122.896 171.185 122.957 170.894C123.019 170.603 123.154 170.333 123.35 170.11C123.864 169.615 124.516 169.287 125.22 169.17L125.74 169.05L126.29 168.94L126.79 168.84L127.19 168.77C127.242 168.763 127.296 168.776 127.34 168.805C127.384 168.834 127.416 168.879 127.43 168.93L127.55 169.46C127.559 169.485 127.562 169.513 127.56 169.54C127.557 169.567 127.548 169.593 127.533 169.616C127.519 169.639 127.499 169.659 127.476 169.673C127.453 169.688 127.427 169.697 127.4 169.7L126.49 169.86C126.13 169.93 125.78 170 125.49 170.08C125.05 170.143 124.633 170.319 124.28 170.59C124.164 170.711 124.084 170.862 124.049 171.027C124.013 171.191 124.024 171.361 124.08 171.52C124.11 171.648 124.166 171.768 124.243 171.875C124.32 171.981 124.418 172.071 124.53 172.14C124.87 172.343 125.237 172.497 125.62 172.6L126.8 172.98C127.141 173.079 127.476 173.203 127.8 173.35C128.039 173.459 128.264 173.596 128.47 173.76C128.648 173.896 128.797 174.066 128.91 174.26C129.018 174.447 129.099 174.649 129.15 174.86C129.21 175.135 129.23 175.418 129.21 175.7C129.189 175.991 129.096 176.273 128.94 176.52C128.754 176.812 128.505 177.058 128.21 177.24C127.798 177.483 127.348 177.655 126.88 177.75C126.49 177.84 126.13 177.9 125.88 177.94L125.04 178.02C124.975 178.039 124.905 178.039 124.84 178.02C124.807 177.984 124.786 177.938 124.78 177.89L124.68 177.44C124.668 177.417 124.661 177.391 124.661 177.365C124.661 177.339 124.668 177.313 124.68 177.29C124.711 177.252 124.753 177.224 124.8 177.21L125.24 177.14L125.74 177.04L126.23 176.94L126.67 176.85C126.954 176.788 127.23 176.69 127.49 176.56C127.674 176.471 127.832 176.337 127.95 176.17C128.049 176.024 128.111 175.855 128.13 175.68C128.154 175.497 128.154 175.312 128.13 175.13C128.102 174.997 128.048 174.871 127.97 174.76C127.893 174.642 127.791 174.542 127.67 174.47C127.513 174.365 127.346 174.278 127.17 174.21C126.97 174.12 126.72 174.03 126.43 173.93L125.18 173.52C124.688 173.373 124.224 173.143 123.81 172.84C123.412 172.601 123.122 172.218 123 171.77ZM108.61 171.87C108.61 171.756 108.67 171.696 108.79 171.69L109.49 171.64C109.529 171.627 109.571 171.627 109.61 171.64C109.651 171.668 109.685 171.706 109.71 171.75L111.57 175.35C111.614 175.438 111.672 175.519 111.74 175.59C111.779 175.603 111.821 175.603 111.86 175.59C111.901 175.58 111.939 175.559 111.97 175.53C112.028 175.451 112.072 175.363 112.1 175.27L113.41 171.43C113.422 171.386 113.442 171.345 113.47 171.31C113.483 171.291 113.501 171.275 113.522 171.264C113.543 171.254 113.566 171.249 113.59 171.25L114.29 171.19C114.42 171.19 114.49 171.19 114.49 171.34C114.504 171.382 114.504 171.428 114.49 171.47L113 175.68C112.935 175.871 112.844 176.053 112.73 176.22C112.654 176.33 112.555 176.422 112.44 176.49L112.69 179.75C112.709 179.801 112.709 179.858 112.69 179.91C112.673 179.935 112.651 179.956 112.625 179.971C112.599 179.987 112.57 179.996 112.54 180H111.91C111.882 180.005 111.853 180.002 111.826 179.992C111.8 179.981 111.777 179.963 111.76 179.94C111.737 179.922 111.719 179.899 111.707 179.873C111.694 179.847 111.689 179.819 111.69 179.79L111.44 176.53C111.313 176.49 111.2 176.417 111.11 176.32C110.974 176.167 110.857 175.999 110.76 175.82L108.64 172C108.615 171.96 108.598 171.916 108.59 171.87H108.61ZM99.8899 172.25V171.75C99.8909 171.723 99.8977 171.696 99.9098 171.672C99.9219 171.648 99.9389 171.627 99.9599 171.61C99.9829 171.59 100.01 171.575 100.039 171.566C100.069 171.557 100.1 171.555 100.13 171.56L105.65 171.75C105.8 171.75 105.87 171.83 105.86 171.96V172.46C105.86 172.58 105.78 172.64 105.63 172.64L103.39 172.56L103.13 180C103.121 180.053 103.1 180.105 103.07 180.15C103.052 180.173 103.03 180.191 103.003 180.203C102.977 180.215 102.949 180.221 102.92 180.22H102.28C102.251 180.217 102.223 180.209 102.197 180.195C102.171 180.181 102.148 180.162 102.13 180.14C102.098 180.092 102.081 180.037 102.08 179.98L102.34 172.54L100.11 172.46C100.053 172.46 99.9969 172.442 99.9499 172.41C99.9211 172.395 99.8978 172.372 99.8834 172.343C99.869 172.314 99.8643 172.282 99.8699 172.25H99.8899ZM94.3599 179.25L95.3599 171.2C95.3626 171.171 95.3711 171.143 95.3848 171.117C95.3985 171.091 95.4173 171.068 95.4399 171.05C95.488 171.03 95.5418 171.03 95.5899 171.05L96.2199 171.13C96.2482 171.13 96.2761 171.137 96.3007 171.151C96.3253 171.165 96.3457 171.185 96.3599 171.21C96.3715 171.235 96.3775 171.262 96.3775 171.29C96.3775 171.317 96.3715 171.345 96.3599 171.37L95.3599 179.37C95.359 179.398 95.3523 179.426 95.3403 179.452C95.3283 179.478 95.3111 179.501 95.2899 179.52C95.2693 179.541 95.2443 179.557 95.2166 179.568C95.1889 179.578 95.1593 179.582 95.1299 179.58L94.4999 179.5C94.4717 179.499 94.4442 179.491 94.4198 179.477C94.3954 179.463 94.3748 179.444 94.3599 179.42C94.3417 179.372 94.3348 179.321 94.3399 179.27L94.3599 179.25ZM86.0999 175.79L87.5299 169.68C87.5464 169.623 87.5816 169.574 87.6299 169.54C87.6884 169.521 87.7514 169.521 87.8099 169.54L88.3799 169.68C88.4092 169.685 88.437 169.697 88.4612 169.714C88.4854 169.731 88.5055 169.754 88.5199 169.78C88.5382 169.835 88.5382 169.895 88.5199 169.95L87.0999 176C87.0561 176.183 87.0327 176.371 87.0299 176.56C87.0232 176.705 87.0617 176.848 87.1399 176.97C87.2294 177.102 87.3541 177.206 87.4999 177.27C87.7252 177.366 87.9597 177.44 88.1999 177.49L90.3799 177.93C90.4599 177.93 90.4899 177.99 90.4699 178.11L90.3299 178.67C90.3392 178.706 90.3392 178.744 90.3299 178.78C90.3142 178.787 90.2971 178.791 90.2799 178.791C90.2626 178.791 90.2456 178.787 90.2299 178.78C90.0699 178.78 89.7999 178.73 89.4099 178.66C89.0199 178.59 88.5499 178.49 88.0199 178.37C87.7274 178.3 87.4401 178.209 87.1599 178.1C86.8946 177.997 86.6555 177.836 86.4599 177.63C86.2566 177.461 86.0985 177.245 85.9999 177C85.9332 176.602 85.9606 176.195 86.0799 175.81L86.0999 175.79ZM78.6899 171.88L81.1199 172.69L81.3499 168.77C81.3601 168.713 81.3495 168.655 81.3201 168.605C81.2908 168.555 81.2445 168.518 81.1899 168.5C81.1351 168.478 81.0742 168.477 81.0189 168.498C80.9636 168.518 80.9177 168.558 80.8899 168.61L78.6899 171.88ZM75.6899 174.59V174.52L80.0999 168.1C80.186 167.963 80.2981 167.844 80.4299 167.75C80.5432 167.676 80.6684 167.622 80.7999 167.59C80.9194 167.575 81.0404 167.575 81.1599 167.59C81.2716 167.604 81.3819 167.628 81.4899 167.66C81.5976 167.696 81.7014 167.743 81.7999 167.8C81.9022 167.865 81.9963 167.942 82.0799 168.03C82.1628 168.135 82.227 168.253 82.2699 168.38C82.3088 168.537 82.3088 168.702 82.2699 168.86L81.8899 176.65C81.8937 176.676 81.8937 176.703 81.8899 176.73C81.8899 176.85 81.7699 176.88 81.6399 176.84L80.9999 176.62C80.9774 176.617 80.956 176.608 80.9383 176.594C80.9206 176.58 80.9073 176.561 80.8999 176.54C80.8895 176.494 80.8895 176.446 80.8999 176.4L81.0599 173.66L78.1599 172.66L76.6199 175C76.5931 175.04 76.5548 175.072 76.5099 175.09C76.4877 175.099 76.4639 175.104 76.4399 175.104C76.4158 175.104 76.392 175.099 76.3699 175.09L75.7499 174.88C75.72 174.877 75.6915 174.866 75.6671 174.848C75.6428 174.831 75.6236 174.807 75.6114 174.78C75.5992 174.752 75.5945 174.722 75.5977 174.692C75.601 174.662 75.6121 174.634 75.6299 174.61L75.6899 174.59ZM67.9999 168.07L70.1299 163.29C70.1406 163.263 70.1569 163.238 70.1777 163.218C70.1985 163.197 70.2233 163.181 70.2506 163.171C70.2779 163.16 70.3071 163.156 70.3362 163.157C70.3653 163.159 70.3938 163.167 70.4199 163.18L70.9799 163.43C71.006 163.44 71.0294 163.457 71.0484 163.477C71.0674 163.498 71.0816 163.523 71.0899 163.55C71.11 163.601 71.11 163.658 71.0899 163.71L68.9999 168.5C68.8592 168.801 68.7519 169.116 68.6799 169.44C68.6198 169.696 68.6198 169.963 68.6799 170.22C68.7417 170.459 68.862 170.679 69.0299 170.86C69.25 171.075 69.5075 171.248 69.7899 171.37C70.0658 171.501 70.3649 171.575 70.6699 171.59C70.9197 171.6 71.1678 171.545 71.3899 171.43C71.6215 171.305 71.8202 171.126 71.9699 170.91C72.1656 170.639 72.3299 170.347 72.4599 170.04L74.5899 165.26C74.6131 165.206 74.656 165.163 74.7099 165.14C74.7648 165.12 74.825 165.12 74.8799 165.14L75.4399 165.39C75.4912 165.418 75.5303 165.464 75.5499 165.52C75.57 165.571 75.57 165.628 75.5499 165.68L73.4199 170.46C73.1301 171.292 72.5224 171.975 71.7299 172.36C71.3536 172.483 70.9566 172.531 70.5619 172.5C70.1671 172.469 69.7824 172.36 69.4299 172.18C69.0587 172.041 68.7195 171.829 68.4325 171.555C68.1455 171.282 67.9167 170.954 67.7599 170.59C67.505 169.751 67.5913 168.845 67.9999 168.07ZM60.4099 162.94C60.1816 163.29 60.0032 163.67 59.8799 164.07C59.7832 164.366 59.7525 164.68 59.7899 164.99C59.8274 165.259 59.9342 165.514 60.0999 165.73C60.2839 165.961 60.5074 166.157 60.7599 166.31C61.0055 166.463 61.2763 166.571 61.5599 166.63C61.8179 166.705 62.0918 166.705 62.3499 166.63C62.6442 166.523 62.9132 166.356 63.1399 166.14C63.4448 165.847 63.7043 165.51 63.9099 165.14L64.6999 163.88C64.9251 163.533 65.1002 163.156 65.2199 162.76C65.3136 162.463 65.3476 162.15 65.3199 161.84C65.2842 161.57 65.1772 161.314 65.0099 161.1C64.833 160.872 64.6161 160.679 64.3699 160.53C64.1234 160.369 63.8484 160.257 63.5599 160.2C63.2977 160.131 63.0221 160.131 62.7599 160.2C62.4627 160.296 62.1921 160.46 61.9699 160.68C61.6671 160.977 61.4049 161.314 61.1899 161.68L60.4099 162.94ZM59.5199 162.39L60.2999 161.13C60.5859 160.652 60.9472 160.223 61.3699 159.86C61.7039 159.575 62.0965 159.367 62.5199 159.25C62.9047 159.16 63.3051 159.16 63.6899 159.25C64.1092 159.342 64.5088 159.508 64.8699 159.74C65.2314 159.957 65.55 160.238 65.8099 160.57C66.0564 160.882 66.2244 161.249 66.2999 161.64C66.3988 162.064 66.3988 162.505 66.2999 162.93C66.1573 163.465 65.9312 163.975 65.6299 164.44L64.8399 165.7C64.5682 166.144 64.2311 166.546 63.8399 166.89C63.547 167.161 63.2085 167.377 62.8399 167.53C62.5026 167.66 62.1393 167.708 61.7799 167.67C61.4124 167.636 61.0536 167.537 60.7199 167.38L60.4599 167.8C60.3969 167.898 60.3433 168.002 60.2999 168.11C60.2761 168.185 60.2761 168.265 60.2999 168.34C60.33 168.417 60.378 168.485 60.4399 168.54L60.7299 168.75L61.3099 169.11C61.3637 169.133 61.4066 169.176 61.4299 169.23C61.445 169.254 61.453 169.281 61.453 169.31C61.453 169.338 61.445 169.366 61.4299 169.39L61.2199 169.72C61.2199 169.8 61.0599 169.82 60.8999 169.77C60.6858 169.693 60.4812 169.593 60.2899 169.47C60.0759 169.339 59.875 169.189 59.6899 169.02C59.5406 168.885 59.4243 168.717 59.3499 168.53C59.2992 168.347 59.2992 168.153 59.3499 167.97C59.4159 167.723 59.5169 167.488 59.6499 167.27L59.9299 166.84C59.6372 166.611 59.3897 166.329 59.1999 166.01C59.0143 165.706 58.8982 165.364 58.8599 165.01C58.824 164.61 58.8613 164.207 58.9699 163.82C59.0886 163.318 59.2807 162.836 59.5399 162.39H59.5199Z" fill="#464451"/>
<path d="M71.5198 21.8504L71.6798 21.7804L71.9198 21.6904L72.1598 21.5904L72.3098 21.5204C72.5556 21.4141 72.7901 21.2835 73.0098 21.1304C73.1609 21.0267 73.2901 20.8941 73.3898 20.7404C73.4778 20.615 73.5201 20.4632 73.5098 20.3104C73.4925 20.1304 73.4452 19.9547 73.3698 19.7904L73.2998 19.6404C73.2419 19.4914 73.1459 19.3602 73.0212 19.2602C72.8966 19.1601 72.7478 19.0947 72.5898 19.0704C72.1811 19.0453 71.7732 19.1317 71.4098 19.3204L71.2298 19.4104L70.9798 19.5404L70.7298 19.6604L70.5698 19.7404L71.5198 21.8504ZM71.5898 27.0504L68.2298 19.6104C68.1886 19.5457 68.1619 19.4729 68.1515 19.397C68.1411 19.321 68.1474 19.2437 68.1698 19.1704C68.2518 19.0443 68.3612 18.9383 68.4898 18.8604L68.9198 18.5904L69.4598 18.2904L70.0598 17.9804L70.6698 17.6904C71.0972 17.4918 71.5426 17.3344 71.9998 17.2204C72.4161 17.1414 72.8435 17.1414 73.2598 17.2204C73.6489 17.2915 74.0136 17.4601 74.3198 17.7104C74.676 18.009 74.954 18.39 75.1298 18.8204L75.1898 18.9604C75.4465 19.4591 75.5309 20.0287 75.4298 20.5804C75.3268 21.0461 75.0986 21.4748 74.7698 21.8204L77.8598 24.2004C77.895 24.2258 77.9227 24.2604 77.9398 24.3004C77.9398 24.3904 77.9398 24.4704 77.8398 24.5204L76.1498 25.2804C76.1259 25.2955 76.0981 25.3035 76.0698 25.3035C76.0415 25.3035 76.0138 25.2955 75.9898 25.2804L75.8298 25.1704L73.1098 23.0004H72.9998L72.5898 23.1704L72.2098 23.3304L73.4898 26.1504C73.5097 26.2121 73.5097 26.2786 73.4898 26.3404C73.4794 26.3717 73.4625 26.4003 73.44 26.4245C73.4176 26.4487 73.3902 26.4677 73.3598 26.4804L71.9198 27.1304C71.8589 27.1554 71.7907 27.1554 71.7298 27.1304C71.6758 27.1192 71.6268 27.0912 71.5898 27.0504ZM61.8198 30.2204L59.6198 26.8304C59.3625 26.4502 59.1855 26.0214 59.0998 25.5704C59.0506 25.2323 59.092 24.8872 59.2198 24.5704C59.3596 24.2574 59.5602 23.9753 59.8098 23.7404C60.0884 23.4837 60.3896 23.2528 60.7098 23.0504C60.9798 22.8704 61.2198 22.7204 61.4398 22.6004C61.6598 22.4804 61.8398 22.3704 62.0098 22.2804L62.4398 22.0604L62.7698 21.9204C62.9231 21.847 63.0331 21.867 63.0998 21.9804L63.7198 22.9804C63.7347 23.008 63.7425 23.039 63.7425 23.0704C63.7425 23.1018 63.7347 23.1327 63.7198 23.1604C63.7153 23.1912 63.704 23.2207 63.6867 23.2466C63.6694 23.2726 63.6466 23.2944 63.6198 23.3104L61.5598 24.6004C61.3685 24.7042 61.2224 24.8752 61.1498 25.0804C61.1352 25.308 61.2065 25.5329 61.3498 25.7104L61.9498 26.6404L64.6098 24.9204C64.668 24.8998 64.7316 24.8998 64.7898 24.9204C64.8287 24.9146 64.8685 24.919 64.9052 24.933C64.942 24.947 64.9746 24.9702 64.9998 25.0004L65.6198 26.0004C65.6347 26.0298 65.6425 26.0624 65.6425 26.0954C65.6425 26.1284 65.6347 26.1609 65.6198 26.1904C65.6153 26.2212 65.604 26.2507 65.5867 26.2766C65.5694 26.3026 65.5466 26.3244 65.5198 26.3404L62.8398 28.0004L63.5398 29.0804C63.7198 29.3504 63.8798 29.5004 64.0498 29.5304C64.1568 29.5429 64.2652 29.5333 64.3684 29.5024C64.4716 29.4714 64.5674 29.4197 64.6498 29.3504L66.7298 28.0004C66.7577 27.9863 66.7885 27.979 66.8198 27.979C66.8511 27.979 66.8819 27.9863 66.9098 28.0004C66.9742 28.0115 67.0316 28.0474 67.0698 28.1004L67.6898 29.1004C67.7099 29.1273 67.7242 29.1583 67.7316 29.1911C67.739 29.2239 67.7394 29.258 67.7328 29.291C67.7262 29.324 67.7127 29.3552 67.6933 29.3827C67.6738 29.4101 67.6488 29.4332 67.6198 29.4504L66.9698 29.9804C66.6898 30.2104 66.2698 30.4904 65.7198 30.8504C65.4029 31.0565 65.0683 31.2339 64.7198 31.3804C64.4042 31.5154 64.063 31.5802 63.7198 31.5704C63.3649 31.5577 63.0197 31.4507 62.7198 31.2604C62.3515 30.9793 62.0451 30.6252 61.8198 30.2204ZM50.3798 32.5804L49.5998 31.5804C49.5873 31.5538 49.5808 31.5247 49.5808 31.4954C49.5808 31.466 49.5873 31.437 49.5998 31.4104C49.6074 31.3472 49.6398 31.2897 49.6898 31.2504L54.4098 27.4904C54.4642 27.4577 54.5264 27.4404 54.5898 27.4404C54.6224 27.4396 54.6547 27.4464 54.6842 27.4603C54.7138 27.4742 54.7396 27.4947 54.7598 27.5204L55.5398 28.5204C55.5525 28.5487 55.5591 28.5793 55.5591 28.6104C55.5591 28.6414 55.5525 28.6721 55.5398 28.7004C55.5303 28.7629 55.4983 28.8197 55.4498 28.8604L53.8998 30.0804L58.2998 35.6304C58.3203 35.6552 58.3353 35.6841 58.3439 35.7151C58.3525 35.7461 58.3545 35.7785 58.3498 35.8104C58.3487 35.8423 58.3399 35.8735 58.3242 35.9013C58.3086 35.9291 58.2865 35.9528 58.2598 35.9704L56.9998 37.0004C56.9732 37.0129 56.9442 37.0193 56.9148 37.0193C56.8854 37.0193 56.8564 37.0129 56.8298 37.0004C56.7637 36.9932 56.7029 36.961 56.6598 36.9104L52.2598 31.3704L50.6998 32.6004C50.6531 32.6417 50.5921 32.6632 50.5298 32.6604C50.5007 32.6576 50.4725 32.6492 50.4468 32.6354C50.421 32.6217 50.3983 32.603 50.3798 32.5804ZM43.3798 40.7904C43.1498 40.5735 42.9572 40.3201 42.8098 40.0404C42.6739 39.7642 42.6119 39.4576 42.6298 39.1504C42.6574 38.7995 42.7597 38.4585 42.9298 38.1504C43.1647 37.7081 43.4647 37.3035 43.8198 36.9504C43.9698 36.8004 44.1398 36.6304 44.3298 36.4604C44.5198 36.2904 44.6998 36.1204 44.8798 35.9704C45.0598 35.8204 45.2298 35.6804 45.3998 35.5504C45.5285 35.4536 45.662 35.3635 45.7998 35.2804C45.8453 35.2658 45.8943 35.2658 45.9398 35.2804C45.9664 35.277 45.9934 35.2807 46.018 35.2913C46.0426 35.3018 46.064 35.3188 46.0798 35.3404L46.9698 36.1904C47.0089 36.2247 47.0367 36.27 47.0498 36.3204C47.0484 36.3512 47.0406 36.3813 47.0268 36.4089C47.013 36.4364 46.9936 36.4608 46.9698 36.4804L46.6398 36.7804L46.1498 37.2404C45.9598 37.4104 45.7798 37.5804 45.5898 37.7704C45.3998 37.9604 45.2298 38.1104 45.0898 38.2604C44.8979 38.431 44.7591 38.6531 44.6898 38.9004C44.6831 38.9929 44.6986 39.0857 44.7352 39.1709C44.7717 39.2562 44.8282 39.3314 44.8998 39.3904C44.9531 39.4469 45.0179 39.4912 45.0898 39.5204C45.1656 39.5363 45.244 39.5363 45.3198 39.5204C45.4225 39.5365 45.5271 39.5365 45.6298 39.5204L46.0798 39.4004L47.7598 38.8504C48.3049 38.6437 48.8958 38.5884 49.4698 38.6904C49.925 38.8144 50.3413 39.0518 50.6798 39.3804C50.9199 39.606 51.1165 39.8737 51.2598 40.1704C51.4115 40.4815 51.4869 40.8243 51.4798 41.1704C51.4758 41.5742 51.3873 41.9728 51.2198 42.3404C50.9932 42.8197 50.6854 43.2561 50.3098 43.6304C50.0125 43.9404 49.6987 44.2342 49.3698 44.5104C49.1008 44.7254 48.8204 44.9257 48.5298 45.1104C48.4731 45.1392 48.4125 45.1594 48.3498 45.1704C48.3187 45.1762 48.2866 45.1737 48.2568 45.1632C48.2269 45.1526 48.2004 45.1344 48.1798 45.1104L47.3298 44.3004C47.2598 44.2304 47.2298 44.1804 47.2398 44.1204C47.2442 44.0664 47.2693 44.0163 47.3098 43.9804L47.6898 43.6504L48.1798 43.2004L48.6498 42.7504L48.9998 42.4004C49.232 42.2057 49.3908 41.9376 49.4498 41.6404C49.4415 41.5231 49.4098 41.4088 49.3565 41.304C49.3033 41.1992 49.2296 41.1062 49.1398 41.0304C49.0175 40.9151 48.8577 40.8476 48.6898 40.8404C48.4248 40.8446 48.1619 40.8884 47.9098 40.9704L45.9998 41.3604C45.7199 41.4432 45.4313 41.4936 45.1398 41.5104C44.9013 41.5133 44.6632 41.4898 44.4298 41.4404C44.2228 41.384 44.0243 41.2999 43.8398 41.1904C43.665 41.0759 43.5039 40.9417 43.3598 40.7904H43.3798ZM40.1098 49.8604L41.1098 48.3904L37.9998 47.0004C37.9534 46.9939 37.9062 46.9939 37.8598 47.0004C37.8598 47.0004 37.7998 47.0004 37.7598 47.0704C37.7198 47.1404 37.7598 47.2204 37.8098 47.3104L40.1098 49.8604ZM41.3698 54.4204L36.2698 48.5704C36.097 48.3787 35.9644 48.1542 35.8798 47.9104C35.8306 47.7066 35.8306 47.4941 35.8798 47.2904C35.9059 47.0881 35.9668 46.8919 36.0598 46.7104C36.1598 46.5204 36.2698 46.3504 36.3798 46.1804C36.5022 46.0115 36.6358 45.8512 36.7798 45.7004C36.9254 45.5607 37.0904 45.4428 37.2698 45.3504C37.4628 45.2561 37.6751 45.2082 37.8898 45.2104C38.1515 45.2105 38.4103 45.265 38.6498 45.3704L45.8498 48.2704C45.9398 48.3404 45.9498 48.4304 45.8498 48.5404L44.9198 49.8504C44.8854 49.8961 44.8357 49.928 44.7798 49.9404C44.7206 49.9544 44.659 49.9544 44.5998 49.9404L42.7298 49.1204L41.2798 51.1204L42.6598 52.6304C42.6999 52.6759 42.7274 52.731 42.7398 52.7904C42.7454 52.8513 42.7275 52.9122 42.6898 52.9604L41.6898 54.3804C41.6782 54.4142 41.6572 54.444 41.6294 54.4664C41.6015 54.4889 41.5679 54.503 41.5324 54.5072C41.4969 54.5113 41.4609 54.5054 41.4286 54.4901C41.3963 54.4747 41.369 54.4505 41.3498 54.4204H41.3698ZM35.6798 65.1104L28.1398 61.2904C28.087 61.2675 28.0398 61.2333 28.0018 61.19C27.9637 61.1468 27.9357 61.0957 27.9198 61.0404C27.877 60.9345 27.877 60.8162 27.9198 60.7104L28.4298 59.7104C28.476 59.6073 28.5524 59.5207 28.6487 59.4618C28.7451 59.4029 28.857 59.3745 28.9698 59.3804L32.9998 59.2704C33.1198 59.2704 33.1898 59.2704 33.2098 59.2204C33.2298 59.1704 33.2098 59.1304 33.1198 59.0304L30.8698 55.8104C30.8017 55.7194 30.7609 55.6109 30.752 55.4976C30.7432 55.3843 30.7667 55.2708 30.8198 55.1704L31.3398 54.1704C31.3871 54.0633 31.4727 53.9777 31.5798 53.9304C31.689 53.8869 31.8106 53.8869 31.9198 53.9304L39.4498 57.7404C39.4743 57.752 39.4949 57.7704 39.5091 57.7935C39.5233 57.8166 39.5305 57.8433 39.5298 57.8704C39.5451 57.9123 39.5451 57.9584 39.5298 58.0004L38.7998 59.4404C38.7878 59.4653 38.7695 59.4868 38.7467 59.5025C38.7239 59.5183 38.6974 59.5279 38.6698 59.5304C38.6149 59.5502 38.5547 59.5502 38.4998 59.5304L33.8998 57.2404C33.8398 57.2404 33.8098 57.2404 33.7898 57.2404C33.7793 57.2604 33.7738 57.2827 33.7738 57.3054C33.7738 57.328 33.7793 57.3503 33.7898 57.3704L35.0798 59.2504C35.119 59.3116 35.1398 59.3827 35.1398 59.4554C35.1398 59.528 35.119 59.5992 35.0798 59.6604L34.6298 60.5304C34.6009 60.5999 34.5524 60.6596 34.4903 60.7021C34.4282 60.7447 34.3551 60.7684 34.2798 60.7704L31.9998 60.8404C31.9298 60.8404 31.8998 60.8404 31.8798 60.8404C31.8598 60.8404 31.8798 60.9104 31.9398 60.9404L36.4598 63.2404C36.5142 63.2664 36.5595 63.3082 36.5898 63.3604C36.6049 63.3843 36.6129 63.4121 36.6129 63.4404C36.6129 63.4687 36.6049 63.4964 36.5898 63.5204L35.9298 65.0004C35.9019 65.0416 35.8682 65.0787 35.8298 65.1104C35.8074 65.1246 35.7814 65.1321 35.7548 65.1321C35.7282 65.1321 35.7022 65.1246 35.6798 65.1104Z" fill="#464451"/>
<path d="M163.1 41.4499L166.15 38.7999C166.482 38.4835 166.882 38.2475 167.32 38.1099C167.648 38.0253 167.992 38.0253 168.32 38.1099C168.654 38.1993 168.964 38.3596 169.23 38.5799C169.526 38.8146 169.798 39.0794 170.04 39.3699C170.25 39.6099 170.44 39.8299 170.59 40.0199L170.98 40.5399C171.1 40.6999 171.19 40.8299 171.26 40.9399C171.33 41.0392 171.393 41.1427 171.45 41.2499C171.54 41.3899 171.54 41.4999 171.45 41.5899L170.6 42.3299C170.576 42.3522 170.547 42.369 170.516 42.3794C170.485 42.3897 170.453 42.3933 170.42 42.3899C170.388 42.3893 170.356 42.3819 170.326 42.3681C170.297 42.3543 170.271 42.3345 170.25 42.3099L168.62 40.4399C168.561 40.3511 168.484 40.2751 168.395 40.2167C168.305 40.1582 168.205 40.1185 168.1 40.0999C167.984 40.1046 167.87 40.1327 167.765 40.1825C167.66 40.2324 167.567 40.3029 167.49 40.3899L166.66 41.1099L168.74 43.4999C168.752 43.5267 168.758 43.5557 168.758 43.5849C168.758 43.6142 168.752 43.6432 168.74 43.6699C168.741 43.7025 168.734 43.7349 168.72 43.7644C168.706 43.7939 168.686 43.8198 168.66 43.8399L167.79 44.5999C167.761 44.612 167.731 44.6183 167.7 44.6183C167.669 44.6183 167.638 44.612 167.61 44.5999C167.58 44.5998 167.55 44.5935 167.523 44.5815C167.495 44.5695 167.47 44.5519 167.45 44.5299L165.37 42.1399L164.37 42.9899C164.174 43.1193 164.038 43.3205 163.99 43.5499C164.005 43.7673 164.101 43.971 164.26 44.1199L166 45.9999C166.022 46.022 166.039 46.0488 166.049 46.0782C166.06 46.1076 166.063 46.1389 166.06 46.1699C166.056 46.2349 166.028 46.2958 165.98 46.3399L165.12 47.0899C165.097 47.1141 165.069 47.1334 165.038 47.1465C165.007 47.1597 164.974 47.1664 164.94 47.1664C164.906 47.1664 164.873 47.1597 164.842 47.1465C164.811 47.1334 164.783 47.1141 164.76 47.0899L164.14 46.5099C163.788 46.1576 163.454 45.7871 163.14 45.3999C162.89 45.1209 162.665 44.8197 162.47 44.4999C162.288 44.1947 162.176 43.8534 162.14 43.4999C162.11 43.1575 162.168 42.8131 162.31 42.4999C162.516 42.0854 162.809 41.7204 163.17 41.4299L163.1 41.4499ZM155.77 32.8699L156.77 31.7299C157.182 31.2208 157.692 30.7993 158.27 30.4899C158.715 30.2717 159.204 30.1588 159.7 30.1599C160.152 30.17 160.595 30.2792 161 30.4799C161.395 30.682 161.764 30.9304 162.1 31.2199C162.499 31.5559 162.87 31.9238 163.21 32.3199C163.49 32.6599 163.7 32.9199 163.83 33.1099C163.96 33.2999 163.94 33.3099 163.83 33.3799L162.99 34.3799C162.95 34.4333 162.91 34.4533 162.87 34.4399C162.826 34.4281 162.786 34.4077 162.75 34.3799L161.97 33.6199C161.65 33.3099 161.3 32.9899 160.91 32.6199C160.739 32.472 160.547 32.3506 160.34 32.2599C160.151 32.1782 159.944 32.1505 159.74 32.1799C159.501 32.22 159.275 32.316 159.08 32.4599C158.807 32.6526 158.561 32.8814 158.35 33.1399L157.35 34.2799C157.112 34.5378 156.917 34.8314 156.77 35.1499C156.669 35.3665 156.611 35.601 156.6 35.8399C156.593 36.0252 156.638 36.2087 156.73 36.3699C156.804 36.5092 156.903 36.6344 157.02 36.7399C157.27 36.9599 157.52 37.1499 157.75 37.3299L159.58 35.2199C159.622 35.1744 159.679 35.146 159.74 35.1399C159.798 35.1166 159.862 35.1166 159.92 35.1399L161.09 36.1399C161.116 36.1601 161.136 36.186 161.15 36.2155C161.164 36.245 161.171 36.2773 161.17 36.3099C161.182 36.3365 161.189 36.3656 161.189 36.3949C161.189 36.4243 161.182 36.4533 161.17 36.4799L158.49 39.5599C158.47 39.5877 158.445 39.611 158.416 39.6287C158.387 39.6463 158.354 39.6578 158.321 39.6625C158.287 39.6672 158.253 39.6649 158.22 39.6559C158.187 39.6469 158.157 39.6312 158.13 39.6099C157.83 39.4399 157.5 39.2399 157.13 38.9899C156.697 38.682 156.283 38.3481 155.89 37.9899C155.708 37.8255 155.537 37.6484 155.38 37.4599C155.211 37.2431 155.067 37.0084 154.95 36.7599C154.828 36.4964 154.744 36.217 154.7 35.9299C154.644 35.599 154.644 35.2609 154.7 34.9299C154.762 34.5812 154.876 34.244 155.04 33.9299C155.216 33.557 155.437 33.2076 155.7 32.8899L155.77 32.8699ZM148.7 27.7699L150.21 28.7699L151.41 25.5499C151.417 25.5035 151.417 25.4564 151.41 25.4099C151.407 25.3888 151.4 25.3686 151.387 25.3512C151.375 25.3338 151.359 25.3196 151.34 25.3099C151.27 25.3099 151.19 25.3099 151.1 25.3699L148.7 27.7699ZM144.21 29.2599L149.8 23.8699C149.977 23.6837 150.192 23.5372 150.43 23.4399C150.629 23.37 150.84 23.3428 151.05 23.3599C151.253 23.3814 151.451 23.4319 151.64 23.5099C151.829 23.6001 152.012 23.7002 152.19 23.8099C152.362 23.9212 152.526 24.0448 152.68 24.1799C152.834 24.3128 152.962 24.4719 153.06 24.6499C153.164 24.8369 153.222 25.046 153.23 25.2599C153.245 25.5222 153.204 25.7846 153.11 26.0299L150.58 33.3699C150.564 33.3889 150.544 33.4041 150.522 33.4145C150.499 33.425 150.475 33.4304 150.45 33.4304C150.425 33.4304 150.401 33.425 150.378 33.4145C150.356 33.4041 150.336 33.3889 150.32 33.3699L148.96 32.4999C148.935 32.4861 148.914 32.4674 148.897 32.4451C148.88 32.4228 148.867 32.3972 148.86 32.3699C148.845 32.3109 148.845 32.249 148.86 32.1899L149.58 30.2799L147.43 28.9999L146 30.4599C145.958 30.5001 145.906 30.5278 145.85 30.5399C145.824 30.5549 145.795 30.5627 145.765 30.5627C145.735 30.5627 145.706 30.5549 145.68 30.5399L144.21 29.5999C144.09 29.4899 144.06 29.3999 144.14 29.2799L144.21 29.2599ZM139.15 18.5499L139.66 17.3999C139.673 17.3706 139.692 17.3445 139.716 17.3237C139.74 17.303 139.769 17.288 139.8 17.2799C139.828 17.2678 139.859 17.2616 139.89 17.2616C139.921 17.2616 139.951 17.2678 139.98 17.2799L145.49 19.7499C145.547 19.7812 145.593 19.8303 145.62 19.8899C145.635 19.9176 145.643 19.9485 145.643 19.9799C145.643 20.0113 145.635 20.0423 145.62 20.0699L145 21.2399C144.989 21.2702 144.97 21.2971 144.945 21.3181C144.921 21.3391 144.892 21.3535 144.86 21.3599C144.798 21.3798 144.732 21.3798 144.67 21.3599L142.88 20.5499L140 26.9999C139.971 27.0595 139.921 27.1059 139.86 27.1299C139.799 27.1549 139.731 27.1549 139.67 27.1299L138.22 26.4799C138.165 26.4501 138.122 26.4012 138.1 26.3424C138.078 26.2836 138.078 26.2188 138.1 26.1599L141 19.6999L139.19 18.8899C139.133 18.8631 139.087 18.8171 139.06 18.7599C139.046 18.7293 139.041 18.6956 139.044 18.6622C139.048 18.6289 139.06 18.597 139.08 18.5699L139.15 18.5499ZM130.5 23.0399L133.22 14.9099C133.225 14.8796 133.237 14.8508 133.255 14.8258C133.272 14.8008 133.296 14.7803 133.323 14.7658C133.35 14.7513 133.38 14.7432 133.411 14.7422C133.441 14.7412 133.472 14.7473 133.5 14.7599L135.05 15.2799C135.081 15.2871 135.11 15.3012 135.135 15.3213C135.16 15.3414 135.18 15.3669 135.193 15.3958C135.207 15.4247 135.213 15.4563 135.213 15.4882C135.212 15.5201 135.204 15.5515 135.19 15.5799L132.47 23.6999C132.46 23.7287 132.444 23.7552 132.424 23.7775C132.403 23.7999 132.378 23.8178 132.35 23.8299C132.322 23.8448 132.291 23.8526 132.26 23.8526C132.229 23.8526 132.198 23.8448 132.17 23.8299L130.63 23.3199C130.6 23.3095 130.573 23.2924 130.55 23.2699C130.527 23.2474 130.51 23.22 130.5 23.1899C130.464 23.1546 130.44 23.1093 130.43 23.0599L130.5 23.0399ZM122.88 16.0399H123.04L123.29 16.1099L123.55 16.1799H123.71C123.969 16.2427 124.234 16.2828 124.5 16.2999C124.684 16.3124 124.868 16.2851 125.04 16.2199C125.185 16.1752 125.31 16.0793 125.39 15.9499C125.489 15.797 125.56 15.6277 125.6 15.4499V15.2899C125.648 15.1372 125.653 14.9743 125.614 14.819C125.575 14.6637 125.494 14.5222 125.38 14.4099C125.073 14.143 124.7 13.9634 124.3 13.8899H124.1L123.82 13.8399H123.55H123.37L122.88 16.0399ZM119.77 20.2099L121.62 12.2099C121.62 12.0099 121.74 11.8799 121.85 11.8299C121.987 11.7641 122.141 11.7431 122.29 11.7699C122.456 11.7576 122.624 11.7576 122.79 11.7699L123.41 11.8599L124.07 11.9799L124.73 12.1199C125.201 12.2278 125.66 12.3819 126.1 12.5799C126.482 12.7484 126.823 12.9975 127.1 13.3099C127.368 13.5891 127.558 13.934 127.65 14.3099C127.759 14.7601 127.759 15.2298 127.65 15.6799V15.8399C127.552 16.388 127.274 16.8878 126.86 17.2599C126.498 17.5686 126.059 17.7726 125.59 17.8499L126.59 21.6099C126.6 21.6561 126.6 21.7038 126.59 21.7499C126.59 21.8499 126.5 21.8799 126.38 21.8499L124.58 21.4299C124.552 21.4256 124.525 21.4141 124.502 21.3967C124.479 21.3792 124.461 21.3562 124.45 21.3299C124.444 21.2667 124.444 21.2031 124.45 21.1399L123.56 17.7599H123.43L123 17.6499C122.869 17.6057 122.735 17.5689 122.6 17.5399L121.9 20.5399C121.893 20.5712 121.88 20.6007 121.861 20.6266C121.842 20.6524 121.818 20.674 121.79 20.6899C121.762 20.704 121.731 20.7113 121.7 20.7113C121.669 20.7113 121.638 20.704 121.61 20.6899L120.06 20.3299C120.028 20.3244 119.998 20.3115 119.972 20.2924C119.946 20.2734 119.925 20.2486 119.91 20.2199C119.875 20.2314 119.838 20.2346 119.801 20.2294C119.765 20.2242 119.73 20.2107 119.7 20.1899L119.77 20.2099ZM110 16.8399L110.31 12.8399C110.324 12.3802 110.44 11.9293 110.65 11.5199C110.822 11.2186 111.066 10.9645 111.36 10.7799C111.669 10.6123 112.01 10.5102 112.36 10.4799C112.736 10.4448 113.114 10.4448 113.49 10.4799C113.81 10.4799 114.1 10.5299 114.34 10.5599L114.99 10.6599L115.46 10.7399L115.81 10.8299C115.97 10.8299 116.05 10.9499 116.04 11.0799L115.95 12.2199C115.948 12.2506 115.94 12.2806 115.926 12.308C115.912 12.3355 115.893 12.36 115.87 12.3799C115.847 12.4041 115.819 12.4222 115.788 12.4326C115.756 12.4431 115.723 12.4456 115.69 12.4399L113.22 12.2499C113.004 12.2118 112.782 12.2583 112.6 12.3799C112.451 12.5555 112.373 12.78 112.38 13.0099L112.29 14.1099L115.45 14.3499C115.511 14.3576 115.567 14.3859 115.61 14.4299C115.633 14.4536 115.65 14.482 115.66 14.5131C115.671 14.5443 115.674 14.5774 115.67 14.6099L115.58 15.7599C115.579 15.7923 115.572 15.8242 115.558 15.8535C115.544 15.8828 115.525 15.9088 115.5 15.9299C115.447 15.9677 115.385 15.9886 115.32 15.9899L112.17 15.7499L112.07 17.0299C112.033 17.2616 112.079 17.4988 112.2 17.6999C112.359 17.8437 112.566 17.9223 112.78 17.9199L115.26 18.1099C115.291 18.1107 115.321 18.1182 115.349 18.132C115.377 18.1459 115.401 18.1656 115.42 18.1899C115.443 18.2136 115.46 18.242 115.47 18.2731C115.481 18.3043 115.484 18.3374 115.48 18.3699L115.39 19.5099C115.39 19.6599 115.3 19.7299 115.13 19.7499H114.28C113.93 19.7499 113.42 19.7499 112.77 19.6799C112.395 19.6525 112.024 19.5922 111.66 19.4999C111.327 19.4199 111.016 19.2661 110.75 19.0499C110.48 18.829 110.276 18.5385 110.16 18.2099C110.006 17.7707 109.951 17.3028 110 16.8399ZM98.16 19.3799L97.51 10.8399C97.5041 10.8088 97.5066 10.7767 97.5171 10.7469C97.5277 10.717 97.5459 10.6905 97.57 10.6699C97.5899 10.6466 97.6144 10.6275 97.6419 10.6137C97.6693 10.6 97.6993 10.5919 97.73 10.5899L99.32 10.4599C99.3849 10.4599 99.448 10.481 99.5 10.5199C99.5254 10.538 99.546 10.562 99.56 10.5899C99.5739 10.6178 99.5808 10.6487 99.58 10.6799L99.83 13.8999L102.83 13.6699L102.58 10.4499C102.577 10.4189 102.58 10.3876 102.591 10.3582C102.601 10.3288 102.618 10.302 102.64 10.2799C102.661 10.2554 102.687 10.2356 102.716 10.2218C102.746 10.208 102.778 10.2006 102.81 10.1999L104.4 10.0799C104.43 10.076 104.461 10.0785 104.49 10.0871C104.519 10.0957 104.547 10.1103 104.57 10.1299C104.594 10.1491 104.614 10.1733 104.628 10.201C104.642 10.2287 104.649 10.259 104.65 10.2899L105.31 18.8299C105.31 18.8918 105.289 18.9518 105.25 18.9999C105.231 19.0274 105.205 19.0499 105.176 19.0655C105.146 19.0812 105.113 19.0896 105.08 19.0899L103.49 19.2099C103.459 19.2148 103.427 19.2119 103.397 19.2014C103.368 19.1909 103.341 19.1732 103.32 19.1499C103.272 19.1093 103.24 19.0524 103.23 18.9899L103 15.4799L100 15.7099L100.27 19.2199C100.271 19.2516 100.265 19.283 100.253 19.3122C100.241 19.3415 100.223 19.3679 100.2 19.3899C100.182 19.4166 100.159 19.4387 100.131 19.4544C100.103 19.47 100.072 19.4788 100.04 19.4799L98.45 19.5999C98.4189 19.6048 98.3871 19.6019 98.3574 19.5914C98.3277 19.5809 98.3011 19.5632 98.28 19.5399C98.2223 19.5025 98.1797 19.4458 98.16 19.3799ZM79.76 16.5799C79.6736 16.2745 79.6398 15.9567 79.66 15.6399C79.6799 15.3298 79.7798 15.03 79.95 14.7699C80.158 14.4702 80.4273 14.218 80.74 14.0299C81.1682 13.7685 81.6335 13.5729 82.12 13.4499L82.81 13.2799L83.53 13.1399L84.19 13.0399H84.67C84.7161 13.0296 84.7639 13.0296 84.81 13.0399C84.8588 13.0688 84.8946 13.1153 84.91 13.1699L85.24 14.3599C85.2499 14.4094 85.2499 14.4604 85.24 14.5099C85.208 14.5601 85.1578 14.596 85.1 14.6099L84.68 14.6999L84.02 14.8399L83.26 15.0099L82.59 15.1899C82.3359 15.2347 82.1018 15.3569 81.92 15.5399C81.865 15.6154 81.8299 15.7035 81.8176 15.796C81.8054 15.8886 81.8165 15.9828 81.85 16.0699C81.8657 16.1452 81.8963 16.2166 81.94 16.2799L82.12 16.4299C82.2114 16.4792 82.3089 16.5162 82.41 16.5399L82.86 16.6599L84.59 17.0499C85.164 17.1459 85.7004 17.3985 86.14 17.7799C86.4733 18.1165 86.7143 18.5332 86.84 18.9899C86.9291 19.3153 86.9596 19.6539 86.93 19.9899C86.9131 20.3442 86.8065 20.6883 86.62 20.9899C86.4078 21.332 86.1289 21.6279 85.8 21.8599C85.36 22.1561 84.8731 22.3759 84.36 22.5099C83.9484 22.6249 83.5312 22.7184 83.11 22.7899C82.7787 22.8382 82.4447 22.865 82.11 22.8699C82.0475 22.8852 81.9824 22.8852 81.92 22.8699C81.8923 22.859 81.8678 22.8415 81.8486 22.8188C81.8294 22.7961 81.8161 22.769 81.81 22.7399L81.48 21.5999C81.4642 21.569 81.4559 21.5347 81.4559 21.4999C81.4559 21.4652 81.4642 21.4309 81.48 21.3999C81.4965 21.3776 81.5174 21.359 81.5415 21.3452C81.5656 21.3314 81.5924 21.3228 81.62 21.3199L82.12 21.2199L82.77 21.0799L83.4 20.9399L83.88 20.8199C84.1781 20.7684 84.4497 20.6167 84.65 20.3899C84.6986 20.2832 84.7238 20.1672 84.7238 20.0499C84.7238 19.9326 84.6986 19.8167 84.65 19.7099C84.6061 19.5481 84.507 19.4066 84.37 19.3099C84.1362 19.1855 83.8875 19.0914 83.63 19.0299L81.74 18.5199C81.4579 18.4513 81.1858 18.3471 80.93 18.2099C80.7192 18.1005 80.5269 17.9588 80.36 17.7899C80.2069 17.6389 80.0756 17.4673 79.97 17.2799C79.8729 17.0556 79.8024 16.8207 79.76 16.5799Z" fill="#464451"/>
</svg>
